<?xml version="1.0" standalone="no"?>
<!DOCTYPE svg PUBLIC "-//W3C//DTD SVG 1.1//EN" "http://www.w3.org/Graphics/SVG/1.1/DTD/svg11.dtd" >
<svg xmlns="http://www.w3.org/2000/svg">
<metadata></metadata>
<defs>
<font id="balticabold" horiz-adv-x="1146" >
<font-face units-per-em="2048" ascent="1638" descent="-410" />
<missing-glyph horiz-adv-x="727" />
<glyph horiz-adv-x="2048" />
<glyph horiz-adv-x="2048" />
<glyph unicode="&#xd;" horiz-adv-x="2048" />
<glyph unicode=" "  horiz-adv-x="727" />
<glyph unicode="&#x09;" horiz-adv-x="727" />
<glyph unicode="&#xa0;" horiz-adv-x="727" />
<glyph unicode="!" horiz-adv-x="571" d="M102 150q0 73 50 126q51 54 120 54q74 0 122 -52t48 -128q0 -74 -50 -124q-51 -51 -120 -51q-64 0 -117 53t-53 122zM113 1454h354l-94 -1034h-180z" />
<glyph unicode="&#x22;" horiz-adv-x="1064" d="M113 887v590h321l-170 -590h-151zM631 887v590h321l-172 -590h-149z" />
<glyph unicode="#" horiz-adv-x="2287" d="M274 256l41 197h387l78 411h-385l39 197h387l72 387h194l-71 -387h416l71 387h193l-72 -387h387l-41 -197h-385l-80 -411h387l-39 -197h-387l-73 -383h-195l72 383h-414l-72 -383h-196l74 383h-388zM897 453h414l78 411h-414z" />
<glyph unicode="$" horiz-adv-x="1216" d="M78 0v381h125q17 -130 107 -219q92 -91 216 -101v541l-125 49q-176 78 -239 195q-64 119 -64 227q5 157 124 272t304 130v180h82v-178q165 -10 293 -111l51 88h115v-371h-133q-6 120 -97 206q-91 87 -204 93v-458l215 -88q293 -131 291 -398q-1 -187 -148 -318 q-144 -129 -358 -140v-238h-107v233q-164 15 -307 127l-37 -102h-104zM317 1178q0 -87 49 -125q46 -36 148 -80l12 -8v413q-104 -16 -156 -73q-53 -58 -53 -127zM633 68q105 22 172 83q71 64 72 158q2 71 -31 115q-34 46 -75 68q-46 25 -114 53l-24 10v-487z" />
<glyph unicode="%" horiz-adv-x="1738" d="M90 1047q0 119 53 205q51 82 137 128q82 43 162 43q135 0 245 -98q112 -100 112 -278q0 -120 -56 -209q-55 -88 -136 -130t-165 -42q-134 5 -242 105q-110 102 -110 276zM311 1047q1 -17 3 -30q1 -9 1 -36q5 -46 15 -80q21 -133 119 -133q29 0 65 31q35 31 47 102 q7 27 12 80q1 6 2.5 16t1.5 14q1 9 1 36q0 24 -1 33q0 4 -1.5 14t-2.5 16q-5 52 -12 76q-11 75 -44 104q-36 31 -68 31q-98 6 -119 -135q-11 -33 -15 -76q0 -27 -1 -35q-2 -13 -3 -28zM354 -223l914 1706l147 -37l-923 -1712zM938 147q0 118 53 204q51 84 134 128 q80 43 163 43q82 0 166 -41q81 -40 137 -126t56 -208q0 -179 -114 -281t-245 -102q-133 6 -242 109q-108 102 -108 274zM1157 147q0 -5 0.5 -10t1.5 -11t1 -9q1 -10 1 -35q1 -28 13 -80q15 -72 48 -101q35 -30 70 -30q90 0 117 131q5 27 10 80q1 16 3 30q1 9 1 35 q0 23 -1 32q-2 13 -3 30q-5 51 -10 78q-24 126 -117 137q-34 0 -70 -31q-33 -29 -48 -106q-12 -52 -13 -78q0 -27 -1 -35q-2 -12 -3 -27z" />
<glyph unicode="&#x26;" horiz-adv-x="1497" d="M90 375q0 128 92 243q91 113 269 203q-105 141 -135 223q-29 80 -29 123q0 139 99 225q98 85 251 85q113 1 189 -42t113 -115q36 -71 32 -142q-15 -175 -240 -314l316 -469q42 101 57 381h276q-18 -301 -231 -532l86 -123h182v-121l-409 -2l-54 74q-60 -43 -149 -70 q-90 -27 -191 -27q-163 0 -283 60q-121 61 -180 153q-61 96 -61 187zM375 440q0 -157 85 -255q85 -99 201 -103q114 -5 224 94l-369 543q-141 -90 -141 -279zM555 1204q1 -90 53 -170q2 -2 35 -47q2 -3 6 -9.5t6 -9.5q5 -9 11 -16q120 65 114 226q0 74 -21 134t-87 60 q-39 0 -63 -20q-26 -22 -41 -60t-13 -88z" />
<glyph unicode="'" horiz-adv-x="442" d="M59 862v592h322l-168 -592h-154z" />
<glyph unicode="(" horiz-adv-x="761" d="M197 655q0 180 6 265q16 245 133 456q117 212 289 240v-98q-133 -45 -133 -363v-993q0 -314 133 -359v-98q-172 28 -289 240q-117 211 -133 456q-6 84 -6 254z" />
<glyph unicode=")" horiz-adv-x="761" d="M135 -197q137 45 137 359v993q0 318 -137 363v98q118 -21 210 -127q95 -108 148 -261t64 -308q6 -44 6 -265q0 -211 -6 -254q-11 -155 -64 -309t-148 -261q-93 -105 -210 -126v98z" />
<glyph unicode="*" horiz-adv-x="731" d="M66 1251l213 19l81 196l89 -196l208 -19l-157 -141l49 -209l-184 109l-187 -109l49 209z" />
<glyph unicode="+" d="M-25 717v182h508v506h183v-506h503v-182h-503v-504h-183v504h-508z" />
<glyph unicode="," horiz-adv-x="571" d="M125 -258v588h324l-175 -588h-149z" />
<glyph unicode="-" horiz-adv-x="761" d="M102 428v197h555v-197h-555z" />
<glyph unicode="." horiz-adv-x="571" d="M115 150q0 74 48 126q49 54 122 54q74 0 122 -52t48 -128q0 -69 -53 -122t-117 -53q-65 0 -118 53q-52 52 -52 122z" />
<glyph unicode="/" horiz-adv-x="1173" d="M74 -59l841 1572h183l-842 -1572h-182z" />
<glyph unicode="0" d="M111 727q0 315 84 484t185 217q104 49 193 49q180 0 323 -164q142 -163 142 -586q0 -319 -85 -485q-86 -167 -188 -216q-107 -51 -192 -51q-158 0 -311 151q-151 150 -151 601zM406 727q0 -209 5 -331q5 -110 42 -213q37 -102 120 -101q81 0 119 102q37 100 43 219 q6 117 6 324q0 299 -26 468q-27 175 -142 177q-83 0 -120 -103t-42 -213q-5 -122 -5 -329z" />
<glyph unicode="1" d="M244 1161l319 293h170v-1333h168v-121h-168h-307h-176v121h174v1040l-107 -92z" />
<glyph unicode="2" d="M104 0v39l322 412q141 178 212 322q72 147 87 288q15 163 -47 242q-61 77 -143 71q-94 -6 -128 -82q-35 -77 -42 -194h-261q0 153 112 265t333 118q225 8 352 -106t133 -265q15 -167 -125 -358q-46 -65 -132 -151l-134 -134q-24 -21 -34 -31q-8 -8 -19.5 -19t-14.5 -14 q-6 -6 -26 -28l-184 -152h550v152h129v-375h-940z" />
<glyph unicode="3" d="M82 426h256q8 -154 54 -250t165 -94q191 2 191 336q6 197 -67 261q-71 62 -181 62l-68 4v70l72 4q105 5 162 64q56 59 49 239q-6 103 -35 178q-29 74 -129 74q-88 2 -132 -74.5t-44 -232.5h-234q-4 153 92 281t336 129q192 1 311 -95q118 -96 130 -227q12 -109 -52 -208 q-63 -97 -178 -132q123 -34 200 -127q78 -93 85 -237q6 -138 -57 -246t-183 -169t-262 -61q-131 0 -244 57q-114 58 -176 158q-63 101 -61 236z" />
<glyph unicode="4" d="M68 367l600 1087h233v-932h172v-155h-172v-242h174v-125h-168h-313h-168v125h197v242h-555zM256 522h367v641z" />
<glyph unicode="5" d="M74 418h264q0 -176 53 -261t160 -79q86 8 146 99t42 327q-15 249 -196 299q-76 20 -160 -4q-80 -23 -174 -68v8l160 715h635l-54 -225h-477q-41 0 -53 -12q-4 -4 -7 -15q-3 -12 -7 -18q0 -4 -5 -27l-63 -272q135 79 301 69q182 -6 298 -126t132 -302q15 -150 -48 -274 q-65 -128 -180 -198q-120 -73 -261 -79q-128 -6 -243 42q-117 49 -189 152q-73 104 -74 249z" />
<glyph unicode="6" d="M82 680q0 366 135 581q135 214 383 216q108 2 191 -38q87 -41 136 -114t54 -168h-240q-17 208 -157 215q-95 6 -149 -106t-54 -383q127 141 287 133q104 -6 193 -64q87 -57 141 -160q56 -107 63 -243q8 -176 -56 -305q-65 -132 -175 -200q-111 -69 -246 -69 q-200 0 -354 165q-154 164 -152 540zM389 479q5 -174 42 -285q38 -112 149 -112q184 0 188 391q5 174 -33 299t-149 125q-71 0 -137 -90t-60 -328z" />
<glyph unicode="7" d="M102 1053v401h945l-232 -684h137l-43 -119l-139 -4l-219 -647h-332l295 647l-207 4l58 119h204l193 430h-543v-147h-117z" />
<glyph unicode="8" d="M78 373q-12 139 60 249q71 108 200 152q-106 46 -165 134q-58 86 -52 210q11 158 132 258q122 101 320 101q202 0 325 -103q121 -102 132 -256q6 -121 -53 -208q-61 -90 -168 -136q133 -44 202 -153q71 -112 56 -248q-17 -170 -152 -284t-342 -114t-343 114 q-135 113 -152 284zM389 367q7 -285 184 -285q109 0 146 93q37 92 37 192q6 137 -26 256q-31 116 -157 116q-201 0 -184 -372zM397 1116q5 -131 40 -209q36 -80 136 -80q171 0 175 289q0 256 -175 256q-176 0 -176 -256z" />
<glyph unicode="9" d="M82 909q-12 169 52 299q65 131 177 200q113 69 244 69q120 0 238 -65q116 -64 194 -223t78 -419q0 -242 -60 -420q-59 -176 -178 -275q-118 -99 -278 -100q-161 -1 -271 92t-116 228h241q30 -207 158 -213q95 -6 149 107t52 382q-117 -141 -285 -133q-161 10 -272 135 t-123 336zM375 979q0 -187 36 -306q36 -118 150 -118q42 0 86 34q45 35 78 127t31 259q-4 397 -193 397q-106 0 -145 -112q-38 -111 -43 -281z" />
<glyph unicode=":" horiz-adv-x="571" d="M115 150q0 74 48 126q49 54 122 54q74 0 122 -52t48 -128q0 -69 -53 -122t-117 -53q-65 0 -118 53q-52 52 -52 122zM115 868q0 72 48 125q48 54 122 54t122 -53q48 -52 48 -126t-53 -124t-117 -50q-65 0 -118 50q-52 49 -52 124z" />
<glyph unicode=";" horiz-adv-x="571" d="M115 -258v588h323l-172 -588h-151zM115 868q0 72 48 125q48 54 122 54t122 -53q48 -52 48 -126t-53 -124t-117 -50q-65 0 -118 50q-52 49 -52 124z" />
<glyph unicode="&#x3c;" horiz-adv-x="1521" d="M135 717v143l1110 639l80 -143l-981 -568l981 -567l-80 -143z" />
<glyph unicode="=" d="M-25 496v182h1194v-182h-1194zM-25 940v182h1194v-182h-1194z" />
<glyph unicode="&#x3e;" horiz-adv-x="1521" d="M193 221l983 567l-983 568l81 143l1108 -639v-143l-1108 -639z" />
<glyph unicode="?" horiz-adv-x="761" d="M51 1167q-6 85 35 158q40 72 118 113q76 40 175 39q141 -1 237 -82q95 -80 95 -205q0 -135 -123 -270l-215 -258q-65 -65 -47 -125q18 -61 86 -37q56 24 86 139l125 -90q-28 -82 -103 -120t-145 -34q-94 6 -167 76t-79 174q-1 73 26 125q28 52 83 115l182 233 q86 108 57 182q-29 77 -119 72q-97 0 -118 -102q-2 -28 -2 -70v-33h-187zM209 150q0 74 48 126q49 54 122 54q72 0 123 -54q49 -52 49 -126q0 -72 -51 -123q-52 -52 -121 -52q-70 0 -120 53t-50 122z" />
<glyph unicode="@" horiz-adv-x="2287" d="M141 668q0 289 133 519q133 231 361 358q229 128 508 128q269 0 469 -94q198 -93 318 -242q118 -147 171 -327q53 -177 47 -342q-6 -196 -101 -336q-94 -138 -239 -205q-144 -66 -297 -66q-139 0 -189 56t-44 112q-24 -49 -125 -97q-102 -49 -178 -50q-83 -4 -162 33 q-81 38 -134 124q-54 87 -54 230q0 201 77 355q79 157 208 245q130 88 274 94q99 1 159 -36q60 -38 105 -115l33 131l200 26l-188 -757q0 -9 -3 -18l-6 -18q-3 -9 -3 -18q-1 -12 -5 -36q-2 -15 -8 -37q-2 -16 -2 -35q0 -36 39 -47q95 -23 204 21q108 43 187 158t80 286 q6 175 -49 331q-56 158 -166 276q-109 117 -269 183q-158 66 -349 64q-232 -5 -422 -114q-189 -109 -301 -305q-111 -195 -111 -435q1 -276 123 -471q121 -195 311 -289q191 -95 400 -90q274 6 432 116l72 -135q-120 -70 -239 -101q-118 -31 -265 -32q-290 -6 -520 116 q-229 121 -357 353q-127 229 -125 533zM848 469q-8 -244 182 -254q88 0 171 69q84 70 116 195l82 332q4 15 -4 45q-1 27 -13 59q-8 48 -53 95t-125 39q-77 -6 -145 -66q-69 -61 -113 -145q-45 -85 -69 -184q-25 -100 -29 -185z" />
<glyph unicode="A" horiz-adv-x="1521" d="M-59 0v121h161l541 1333h178l596 -1333h164l-4 -121h-653v121h168l-119 280h-639l-111 -280h156v-121h-438zM379 520h545l-273 615l-4 49h-10l-6 -49z" />
<glyph unicode="B" horiz-adv-x="1398" d="M90 0v121h168v1210h-168v123h678q271 0 373 -102q103 -102 110 -224v-17q0 -117 -76 -203q-82 -93 -231 -111v-13q147 -6 259 -95t118 -255v-19q0 -182 -144 -295q-153 -120 -374 -120h-713zM571 125h127q133 0 225 85q87 81 87 200v16q-1 179 -115 232t-223 53h-101 v-586zM571 836h107q130 0 204 80q70 75 70 173v13q-5 92 -71 160q-67 69 -207 69h-103v-495z" />
<glyph unicode="C" horiz-adv-x="1490" d="M37 719v24q0 197 94 368q101 183 286 281q163 87 358 87q29 0 59 -2q205 -10 364 -129l70 112h106v-411h-121q-6 127 -117 217t-259 90q-133 0 -244 -72t-178 -221q-61 -134 -61 -320q0 -22 1 -45q10 -262 142 -433q128 -167 364 -168q3 0 6 1q240 7 404 217l106 -79 q-235 -249 -561 -261q-15 -1 -30 -1q-189 0 -363 83q-187 89 -304 264q-116 173 -122 398z" />
<glyph unicode="D" horiz-adv-x="1613" d="M90 0v121h168v1210h-168v123h694q221 0 398 -88t279 -256t102 -383q0 -217 -101 -384q-100 -167 -279 -255q-177 -88 -399 -88h-694zM571 121h109q172 0 349 115q175 114 175 491q0 380 -175 492t-349 112h-109v-1210z" />
<glyph unicode="E" horiz-adv-x="1339" d="M84 0v121h170v1210h-170v123h1137v-287h-119v142h-539v-473h455v155h117v-434h-117v152h-455v-562h584v162h110v-309h-1173z" />
<glyph unicode="F" horiz-adv-x="1277" d="M90 0v121h168v1210h-168v123h1127v-287h-119v142h-527v-473h463v155h113v-434h-113v152h-463v-588h170v-121h-651z" />
<glyph unicode="G" horiz-adv-x="1673" d="M59 774q6 225 128 383q121 157 303 237q179 78 360 83q19 1 38 1q240 0 437 -118l47 94h109v-389h-123q-41 103 -98 169q-56 65 -143 100q-84 34 -197 34q-308 0 -404 -207t-96 -436q5 -278 148 -463q142 -184 385 -184h5q100 1 177 44q75 41 114 106q39 64 39 132v189 h-207v117h518v-666h-100l-113 150q-169 -160 -456 -175h-28q-258 0 -448 107q-200 113 -300 301q-95 179 -95 368v23z" />
<glyph unicode="H" horiz-adv-x="1796" d="M90 0v121h168v1210h-168v123h168h320h163v-123h-170v-495h652v495h-170v123h164h317h170v-123h-170v-1210h170v-121h-170h-317h-164v121h170v588h-652v-588h170v-121h-163h-320h-168z" />
<glyph unicode="I" horiz-adv-x="851" d="M98 0v121h172v1210h-172v123h172h316h166v-123h-172v-1210h172v-121h-166h-316h-172z" />
<glyph unicode="J" horiz-adv-x="1155" d="M20 360h291q-1 -17 -1 -33q0 -102 22 -170q24 -75 117 -75q91 0 115 63t24 187v999h-187v123h668v-123h-170v-921q0 -116 -20 -197q-21 -86 -113 -158t-283 -80h-29q-236 0 -332 107q-102 114 -102 278z" />
<glyph unicode="K" horiz-adv-x="1581" d="M90 0v121h168v1210h-168v123h168h313h170v-123h-170v-569l584 569h-176v123h526v-123h-182l-408 -393l504 -817h144v-121h-680v121h170l-365 596l-117 -117v-479h170v-121h-170h-313h-168z" />
<glyph unicode="L" horiz-adv-x="1216" d="M90 0v121h168v1210h-168v123h168h320h163v-123h-170v-1184h476v175h139v-322h-1096z" />
<glyph unicode="M" horiz-adv-x="2129" d="M90 0v121h168v1210h-168v123h168h293l508 -1012l506 1012h473v-123h-170v-1210h170v-121h-170h-303h-170v121h170v1036l-506 -1028h-166l-514 1028v-1036h172v-121h-172h-121h-168z" />
<glyph unicode="N" horiz-adv-x="1824" d="M90 0v121h168v1210h-168v123h461l915 -1085v962h-166v123h447v-123h-172v-1331h-170l-1036 1194v-1073h174v-121h-453z" />
<glyph unicode="O" horiz-adv-x="1703" d="M37 727q0 193 101 364q102 173 290 279q190 107 422 107q234 0 422 -106q187 -105 290 -279q103 -173 103 -365q0 -194 -103 -367q-103 -174 -290 -279q-188 -106 -422 -106q-232 0 -422 107q-188 106 -290 279q-101 171 -101 366zM395 727q0 -221 68 -369 q68 -147 173 -212q104 -64 214 -64q109 0 213 61t175 206t71 378q0 228 -68 373q-67 143 -173 208q-104 64 -218 64q-177 0 -316 -157t-139 -488z" />
<glyph unicode="P" horiz-adv-x="1308" d="M90 0v121h168v1210h-168v123h168h379q264 0 441 -82q179 -83 179 -356q1 -13 0 -26q0 -88 -29 -162q-34 -87 -111 -150q-76 -63 -209 -96q-112 -28 -276 -28q-30 0 -61 1v-434h174v-121h-172h-315h-168zM571 666q22 -2 45 -2q55 0 116 13q91 20 159 101q63 75 63 225v27 q-6 182 -117 248q-93 55 -218 55q-23 0 -48 -2v-665z" />
<glyph unicode="Q" horiz-adv-x="1765" d="M66 727q0 192 103 364q104 173 289 279q187 107 421 107t423 -106q186 -104 290 -278q104 -173 104 -366q0 -120 -62 -288q-62 -167 -252 -306l174 -166l-145 -164l-244 222q-171 -50 -266 -50q-232 0 -426 106t-301 280q-108 175 -108 366zM426 727q0 -221 68 -369 t171 -212t214 -64q101 0 174 39l-170 160l155 159l189 -166q112 194 112 453q0 222 -67 368t-174 212q-105 65 -219 65q-176 0 -315 -157q-138 -156 -138 -488z" />
<glyph unicode="R" horiz-adv-x="1460" d="M90 0v121h168v1210h-168v123h694q543 -11 564 -395v-17q0 -128 -86 -230q-92 -109 -297 -161v-12q78 -5 108 -66l156 -303q20 -38 45 -67q27 -45 57 -60q21 -16 80 -28q25 -4 49 -4v-97q-72 -35 -200 -35q-19 0 -39 1q-112 6 -164 42q-53 37 -113 138l-190 352 q-26 49 -55 62q-27 12 -66 12h-62v-465h170v-121h-651zM571 702q36 -5 71 -5q107 0 210 48q135 63 135 256q0 105 -60 221q-57 109 -241 109h-20h-95v-629z" />
<glyph unicode="S" horiz-adv-x="1216" d="M78 0v381h125q17 -138 120 -229q104 -91 243 -91h3q125 5 213 72q89 68 95 176v8q0 65 -31 107q-34 46 -75 68q-46 25 -114 53l-256 106q-176 78 -239 195q-64 119 -64 227q1 110 65 202q62 91 173 146q112 56 242 56q182 0 323 -111l51 88h115v-371h-133 q-6 129 -108 216t-234 87q-122 -2 -198 -63q-77 -62 -77 -145q0 -87 49 -125q46 -36 148 -80l334 -137q293 -131 291 -398q-4 -195 -157 -328q-155 -135 -404 -135q-198 0 -359 127l-37 -102h-104z" />
<glyph unicode="T" horiz-adv-x="1339" d="M31 1178v276h1278v-276h-135v153h-349v-1210h168v-121h-174h-147h-158h-170v121h170v1210h-352v-153h-131z" />
<glyph unicode="U" horiz-adv-x="1703" d="M84 1331v123h651v-123h-172v-758q0 -186 67 -335q66 -146 321 -146h3q383 12 383 481v758h-174v123h457v-123h-172v-758q0 -236 -100 -415q-101 -182 -463 -183q-227 0 -357 57q-132 58 -188 142q-57 85 -72 175q-14 83 -14 202v780h-170z" />
<glyph unicode="V" horiz-adv-x="1644" d="M-59 1331v123h753v-123h-194l420 -934l438 934h-184v123h530v-123h-186l-611 -1331h-168l-641 1331h-157z" />
<glyph unicode="W" horiz-adv-x="2250" d="M-31 1331v123h654v-123h-162l287 -905l4 -37h10l4 37l352 1028h207l330 -1053v-36h10l4 36l320 930h-160v123h450v-123h-174l-467 -1331h-170l-335 1047v34h-15v-34l-383 -1047h-166l-426 1331h-174z" />
<glyph unicode="X" horiz-adv-x="1703" d="M53 0v121h168l447 590l-447 620h-137v123h664v-123h-170l299 -401l301 401h-168v123h481v-123h-174l-377 -491l526 -719h185v-121h-711v121h166l-358 500l-381 -500h159v-121h-473z" />
<glyph unicode="Y" horiz-adv-x="1476" d="M-18 1331v123h684v-123h-203l364 -645l2 -12h7l4 12l393 645h-199v123h488v-123h-174l-439 -721v-489h170v-121h-651v121h172v440l-446 770h-172z" />
<glyph unicode="Z" horiz-adv-x="1339" d="M72 0l764 1309h-580v-156h-115v301h1121l-762 -1307h647v164h117v-311h-1192z" />
<glyph unicode="[" horiz-adv-x="770" d="M170 -442v1908h481v-159h-172v-1586h172v-163h-481z" />
<glyph unicode="\" horiz-adv-x="1173" d="M74 1513h182l842 -1572h-183z" />
<glyph unicode="]" horiz-adv-x="770" d="M121 -279h172v1586h-172v159h481v-1908h-481v163z" />
<glyph unicode="^" horiz-adv-x="1142" d="M127 1294l231 320h426l232 -320h-168l-277 240l-274 -240h-170z" />
<glyph unicode="_" horiz-adv-x="1142" d="M0 -244h1143v-182h-1143v182z" />
<glyph unicode="`" horiz-adv-x="442" d="M59 862l170 592h152v-592h-322z" />
<glyph unicode="a" horiz-adv-x="1185" d="M66 326q0 150 104 245q106 97 256 103q11 1 21 1q155 0 262 -112v213q0 155 -146 170q-19 2 -37 2q-153 0 -268 -137l-111 139q101 58 200 77q105 20 214 20q434 0 434 -271v-665h123v-111h-409v84q-105 -110 -261 -110q-11 0 -22 1q-150 11 -255 108t-105 243zM365 326 q0 -114 61 -171q58 -53 127 -54q5 0 10 1q89 0 146 84v273q-51 85 -146 90q-76 0 -137 -55t-61 -168z" />
<glyph unicode="b" horiz-adv-x="1286" d="M78 1329v107l407 6v-502l-8 -49h12q63 156 267 156q131 0 239 -67q106 -65 162 -192q50 -111 50 -259q0 -16 -1 -33q-2 -238 -126 -374q-125 -137 -335 -147q-13 -1 -25 -1q-91 0 -153 33q-68 36 -118 126l-146 -135l-102 2v1329h-123zM479 397q1 -158 63 -223 q60 -63 132 -63q5 0 10 -1q85 0 147 81q66 85 66 321q0 161 -34 248q-34 88 -84 121q-48 32 -105 32q-72 0 -132 -64q-62 -66 -63 -226v-111v-115z" />
<glyph unicode="c" horiz-adv-x="1101" d="M78 504v18q0 125 53 241q57 123 169 201q112 77 269 83q7 0 13 1q175 0 295 -104l8 -35h12l-4 37l-2 76h127l4 -344h-129q-21 140 -84 201q-62 61 -141 61q-8 1 -16 1q-69 0 -130 -47q-69 -52 -106 -160q-35 -100 -35 -240v-15q6 -216 98 -317t215 -101q116 6 258 148 l66 -107q-121 -127 -375 -127q-251 0 -406 147t-159 382z" />
<glyph unicode="d" horiz-adv-x="1298" d="M90 496v8q0 248 123 394q125 149 332 149q197 0 266 -156h14l-14 49v389h-160v107l447 6v-1331h123v-111h-361l-35 129h-14q-69 -154 -266 -154q-199 5 -324 140q-125 136 -131 381zM401 512q0 -236 66 -321q61 -80 148 -80h10q72 1 118 47t62 106q11 36 16 133v115v111 q-5 100 -16 133q-37 151 -180 157h-10q-85 0 -147 -83q-67 -88 -67 -318z" />
<glyph unicode="e" horiz-adv-x="1103" d="M59 526q0 148 64 268q62 117 181 185t267 68q158 0 269 -78q109 -77 162 -207q41 -101 41 -204q0 -29 -3 -58h-675v-9q0 -210 95 -313q85 -92 194 -92q16 0 34 2q156 16 262 193l90 -95q-177 -212 -425 -212q-17 0 -35 1q-152 11 -270 82q-118 72 -184 195 q-67 125 -67 274zM365 610h395q1 21 1 41q0 84 -20 150q-24 79 -70 117q-45 38 -102 38q-87 0 -147 -87q-57 -82 -57 -248v-11z" />
<glyph unicode="f" horiz-adv-x="718" d="M72 0v111h121v802h-121v109h121v100q0 116 70 235q67 113 294 113h23q140 0 231 -55l-76 -166h-30q-12 45 -51 92q-34 40 -71 40q-5 0 -10 -1q-94 -7 -94 -166v-192h176v-109h-176v-802h123v-111h-530z" />
<glyph unicode="g" horiz-adv-x="1300" d="M90 526q6 241 131 381t324 140q66 0 154 -31q83 -29 128 -146l50 152h346v-109h-121v-882q0 -518 -536 -518q-33 0 -68 2q-210 12 -338 135l125 200h30q21 -100 88 -171q68 -72 170 -74q150 0 196 98t46 279v116l10 31h-14q-69 -154 -266 -154q-209 5 -333 151 q-122 144 -122 392v8zM401 512q0 -236 66 -321q61 -80 148 -80h10q74 0 135 62t61 224q0 46 -1 62t-1 53q0 36 1 51t1 60q0 165 -61 227q-62 63 -135 63h-10q-85 0 -147 -83q-67 -88 -67 -318z" />
<glyph unicode="h" horiz-adv-x="1339" d="M78 1329v107l426 6l4 -529l-12 -43h12q92 177 317 177q201 0 254 -111q54 -114 54 -268v-557h120v-111h-528v111h123v503q0 115 -26 196q-23 73 -119 73h-15q-70 -5 -127 -63t-57 -206v-503h121v-111h-529v111h123v1218h-141z" />
<glyph unicode="i" horiz-adv-x="661" d="M72 0v111h121v802h-121v109h407v-911h123v-111h-530zM182 1309q0 62 43 106q43 45 109 45q67 0 109 -44t42 -107q0 -64 -45 -109t-106 -45q-60 0 -106 46t-46 108z" />
<glyph unicode="j" horiz-adv-x="606" d="M-121 -348l117 127h29q0 -148 79 -154q6 -1 11 -1q61 0 75 75q3 54 3 65q4 24 4 74v1075h-123v109h409v-1133q0 -344 -321 -356q-55 0 -94 6q-38 6 -95 32q-55 25 -94 81zM172 1309q0 61 45 106t109 45t108 -45q43 -44 43 -106q0 -64 -45 -109t-106 -45q-60 0 -107 45 t-47 109z" />
<glyph unicode="k" horiz-adv-x="1284" d="M59 1329v107l426 6v-910l385 381h-118v109h403v-109h-137l-242 -239l393 -563h109v-111h-547v111h111l-256 378l-101 -100v-278h103v-111h-510v111h123v1218h-142z" />
<glyph unicode="l" horiz-adv-x="667" d="M66 1329v107l426 6v-1331h122v-111h-530v111h123v1218h-141z" />
<glyph unicode="m" horiz-adv-x="1898" d="M78 0v111h123v802h-123v109h411v-78l-12 -43h12q86 146 310 146q200 0 274 -132l2 -18h12l5 18q106 133 287 133q13 0 26 -1q295 -12 295 -314v-622h112v-111l-518 -2v113h123v591q-1 106 -35 159q-34 52 -99 52h-3q-182 -4 -182 -270v-532h123v-111h-535v111h123v591 q-1 106 -35 159q-34 52 -99 52h-3q-187 -5 -187 -270v-532h123v-111h-530z" />
<glyph unicode="n" horiz-adv-x="1320" d="M78 0v111h123v802h-123v109h411v-109l-12 -43h12q92 177 316 177q205 0 256 -109q51 -108 51 -270v-557h123v-111h-530v111h122v503q0 116 -24 196q-22 73 -116 73h-15q-72 -5 -129 -63q-58 -60 -58 -206v-503h123v-111h-530z" />
<glyph unicode="o" horiz-adv-x="1220" d="M78 512q0 228 158 381q159 154 370 154q133 0 256 -70q122 -69 194 -191q72 -121 72 -274q0 -230 -157 -383q-159 -154 -365 -154q-210 0 -369 156t-159 381zM381 512q0 -446 225 -446q76 0 148 86q71 84 71 360q0 275 -71 358q-72 84 -148 84q-225 0 -225 -442z" />
<glyph unicode="p" horiz-adv-x="1298" d="M78 -311h123v1224h-123v109h407v-82l-8 -49h12q63 156 267 156q123 0 227 -61q102 -60 162 -176q59 -115 61 -284v-30q0 -232 -116 -369q-125 -147 -334 -152q-204 0 -267 154h-12l8 -47v-393h140v-109h-547v109zM479 397q1 -158 63 -223q60 -63 132 -63h10q86 0 147 80 q66 85 66 321q0 161 -34 248q-34 88 -84 121q-48 32 -105 32q-72 0 -132 -64q-62 -66 -63 -226v-111v-115z" />
<glyph unicode="q" horiz-adv-x="1298" d="M90 526q6 241 131 381t324 140q66 0 154 -31q83 -29 128 -146l50 152h344v-109h-123v-1224h123v-109h-549v109h139v393l14 47h-14q-69 -154 -266 -154q-209 5 -333 151q-122 144 -122 392v8zM401 512q0 -236 66 -321q61 -80 148 -80h10q74 0 135 62t61 224q0 46 -1 62 t-1 53q0 36 1 51t1 60q0 165 -61 227q-62 63 -135 63h-10q-85 0 -147 -83q-67 -88 -67 -318z" />
<glyph unicode="r" horiz-adv-x="841" d="M84 0v111h123v802h-123v109h405l3 -125l-9 -41h9q25 52 61 93q38 43 86 69t102 26q61 0 129 -40l-108 -234h-29q-15 67 -50 90q-28 19 -56 19q-8 0 -17 -2q-118 -27 -118 -283v-483h141v-111h-549z" />
<glyph unicode="s" horiz-adv-x="1001" d="M111 735v10q0 127 95 213q100 89 263 89q170 0 248 -84l8 -17h10l-4 27v49h129v-311h-129q1 9 1 19q0 89 -53 153q-58 72 -163 73h-10q-83 0 -125 -32q-46 -34 -51 -88q0 -63 59 -97q43 -29 96 -45q59 -28 125 -55q100 -39 144 -66q161 -86 168 -251v-15q0 -131 -99 -228 q-106 -103 -303 -104h-4q-165 0 -252 93l-14 24h-10l10 -31v-61h-129v340h129v-15q0 -98 60 -173q63 -78 199 -78h7q164 10 180 129q2 56 -53 100q-20 13 -129 64q-20 10 -56 25q-5 2 -30 12.5t-37 15.5q-109 46 -137 63q-143 91 -143 252z" />
<glyph unicode="t" horiz-adv-x="802" d="M78 913v109h135v293l285 102v-395h176v-109h-176v-700q0 -71 7 -99q8 -31 44 -32q64 0 76 145l116 -77q-35 -106 -115 -140q-82 -35 -165 -35q-109 1 -164 50q-54 48 -66 102q-12 55 -12 123v663h-141z" />
<glyph unicode="u" horiz-adv-x="1320" d="M84 913v109h408v-643q0 -116 26 -194q27 -81 129 -81h2q91 0 138 80t47 242v487h-117v109h401v-911h123v-111h-407v88l14 41h-14l-19 -37q-40 -51 -119 -84q-78 -33 -159 -33q-217 6 -274 131q-56 122 -56 273v534h-123z" />
<glyph unicode="v" horiz-adv-x="1177" d="M0 913v109h557v-109h-123l244 -569l4 -37h14l2 37l248 569h-119v109h351v-109h-119l-387 -913h-174l-379 913h-119z" />
<glyph unicode="w" horiz-adv-x="1693" d="M0 913v109h551v-109h-123l195 -512l10 -57h12l6 57l248 621h105l225 -621l6 -55h14l4 55l207 512h-117v109h351v-109h-119l-377 -938h-102l-234 605l-20 57l-6 -57l-244 -605h-113l-360 938h-119z" />
<glyph unicode="x" horiz-adv-x="1249" d="M66 0v111h106l307 356l-307 446h-100v109h536v-109h-119l168 -235l203 235h-129v109h397v-109h-127l-276 -325l348 -477h101v-111h-566v111h123l-186 268l-234 -268h178v-111h-423z" />
<glyph unicode="y" horiz-adv-x="1257" d="M41 913v109h545v-109h-123l254 -522l16 -69h12l11 69l217 522h-121v109h365v-109h-125l-482 -1169q-44 -102 -99 -147q-59 -48 -146 -48q-78 0 -138 45l76 183q67 -62 117 -62q58 0 88 76l84 205l-459 917h-92z" />
<glyph unicode="z" horiz-adv-x="1040" d="M111 0v72l469 841h-314v-178h-133v287h825l-499 -911h366v182h133v-293h-847z" />
<glyph unicode="{" horiz-adv-x="1142" d="M334 606v150q203 18 203 311q0 67 -2 125q0 8 -1.5 27t-1.5 29q-1 13 -2.5 36t-1.5 31q0 368 359 385v-123q-160 -35 -160 -219q0 -7 1.5 -29t2.5 -36q2 -48 2 -56q2 -24 3 -47q0 -7 0.5 -21t1.5 -20q1 -10 1 -45q0 -149 -59 -248q-60 -100 -207 -168v-16 q145 -63 206 -166q60 -102 60 -252q0 -36 -1 -46q-1 -5 -1.5 -19t-0.5 -21q-2 -32 -3 -47q0 -6 -2 -54q-1 -13 -2.5 -36t-1.5 -31q0 -181 160 -219v-121q-142 7 -251 91q-108 83 -108 294q0 8 1.5 31t2.5 36q0 12 1.5 29t1.5 23q2 60 2 131q0 102 -39 201q-39 98 -164 110z " />
<glyph unicode="|" horiz-adv-x="1173" d="M479 -426v2288h215v-2288h-215z" />
<glyph unicode="}" horiz-adv-x="1142" d="M254 -219q100 24 132 93q32 70 32 126q0 10 -2 52q-2 32 -6 69q-7 72 -7 133q0 148 59 251q58 100 206 167v16q-149 69 -207 169q-58 101 -58 247q0 60 7 133q4 39 6 72q2 40 2 49q0 59 -32 129q-32 69 -132 90v123q360 -16 360 -385q0 -33 -2 -67q0 -7 -1.5 -26 t-2.5 -30q-2 -58 -2 -125q0 -293 203 -311v-150q-125 -12 -164 -110q-39 -99 -39 -201q0 -71 2 -131q1 -16 3 -41q0 -6 0.5 -18.5t1.5 -17.5q1 -9 1 -42q0 -216 -107 -296q-109 -82 -253 -89v121z" />
<glyph unicode="~" horiz-adv-x="2920" d="M1040 1268q60 150 130 196q71 47 116 47q72 1 131 -28q33 -15 152 -72q93 -52 143 -31q39 12 100 95l66 -39q-30 -89 -95 -171q-64 -81 -155 -87q-29 0 -110 22q-66 28 -120 54q-63 30 -75 34q-34 22 -59 23q-82 15 -158 -84z" />
<glyph unicode="&#xa2;" horiz-adv-x="1101" d="M78 504q-5 190 100 339q106 151 289 191q3 0 2 156q-2 208 -2 260h215v-412q107 -18 195 -94l8 -35h12l-4 37l-2 76h127l4 -344h-129q-21 140 -84 201q-62 61 -141 61q-78 6 -146 -46q-69 -52 -106 -160q-37 -105 -35 -255q6 -216 98 -317t215 -101q116 6 258 148 l66 -107q-109 -115 -334 -127l-2 -395h-215v418q-179 45 -282 181q-102 135 -107 325z" />
<glyph unicode="&#xa3;" horiz-adv-x="1216" d="M90 0v121h168v1210h-168v123h168h320h163v-123h-170v-1184h476v175h139v-322h-1096z" />
<glyph unicode="&#xa5;" horiz-adv-x="1476" d="M-18 1331v123h684v-123h-203l264 -467h221l285 467h-199v123h488v-123h-174l-285 -467h278v-182h-389l-43 -72v-190h432v-182h-432v-117h170v-121h-651v121h172v117h-453v182h453v141l-70 121h-383v182h277l-270 467h-172zM827 682l2 -8h7l2 8h-11z" />
<glyph unicode="&#xa9;" horiz-adv-x="1884" d="M141 803q0 219 112 408q111 187 296 291t395 104q156 0 301 -59q144 -59 258 -168q115 -110 179 -258q65 -150 65 -318q0 -167 -65 -317q-64 -147 -179 -259q-113 -110 -258 -169q-143 -58 -301 -58q-211 0 -395 103q-185 104 -296 291q-112 189 -112 409zM250 803 q0 -180 90 -339t251 -255t353 -96t352 95t249 256t89 339q0 192 -95 352t-256 249t-339 89q-176 0 -339 -90t-259 -249t-96 -351zM551 780q0 176 102 302t287 132q147 4 246 -81l8 -29h10l-4 31l-2 59h102v-272h-100q-15 108 -68 156q-55 50 -110 50q-49 4 -89 -18t-73 -69 q-32 -45 -50 -119q-17 -69 -17 -162q2 -176 78 -254q77 -78 169 -78q97 5 209 117l51 -86q-101 -93 -305 -105q-198 0 -321 123t-123 303z" />
<glyph unicode="&#xab;" horiz-adv-x="1142" d="M141 537l277 413h188l-274 -413l274 -410h-188zM545 537l276 413h189l-271 -413l271 -410h-189z" />
<glyph unicode="&#xad;" horiz-adv-x="761" d="M102 428v197h555v-197h-555z" />
<glyph unicode="&#xae;" horiz-adv-x="1562" d="M141 1227q0 177 89 325q89 147 237 232q147 84 313 84q170 0 318 -83q147 -83 236 -230q89 -148 89 -328q0 -183 -89 -331q-88 -146 -236 -229t-318 -83q-166 0 -313 84q-149 85 -237 231q-89 148 -89 328zM227 1227q0 -155 77 -283t207 -200q131 -72 269 -72 q237 0 397 166t160 389q0 231 -167 392t-390 161q-219 0 -387 -160q-166 -159 -166 -393zM492 879v59h79v567h-79v58h327q257 -1 262 -185q6 -146 -180 -192v-8q42 -4 53 -29l76 -141q6 -15 19 -35l26 -27l16 -5l21 -7q12 0 15 -1q1 0 3 -0.5t5 -1.5t4 -1v-45 q-54 -22 -117 -17q-50 4 -75 21q-26 17 -54 65l-88 164q-21 37 -57 37h-31v-217h82v-59h-307zM717 1210q73 -7 136 21q62 28 62 121q0 48 -27 100q-27 53 -126 53h-45v-295z" />
<glyph unicode="&#xb4;" horiz-adv-x="2592" d="M90 1047q0 119 53 205q51 82 137 128q82 43 162 43q135 0 245 -98q112 -100 112 -278q0 -120 -56 -209q-55 -88 -136 -130t-165 -42q-134 5 -242 105q-110 102 -110 276zM311 1047q1 -17 3 -30q1 -9 1 -36q5 -46 15 -80q21 -133 119 -133q29 0 65 31q35 31 47 102 q7 27 12 80q1 6 2.5 16t1.5 14q1 9 1 36q0 24 -1 33q0 4 -1.5 14t-2.5 16q-5 52 -12 76q-11 75 -44 104q-36 31 -68 31q-98 6 -119 -135q-11 -33 -15 -76q0 -27 -1 -35q-2 -13 -3 -28zM354 -223l914 1706l147 -37l-923 -1712zM938 147q0 118 53 204q51 84 134 128 q80 43 163 43q82 0 166 -41q81 -40 137 -126t56 -208q0 -179 -114 -281t-245 -102q-133 6 -242 109q-108 102 -108 274zM1157 147q0 -5 0.5 -10t1.5 -11t1 -9q1 -10 1 -35q1 -28 13 -80q15 -72 48 -101q35 -30 70 -30q90 0 117 131q5 27 10 80q1 16 3 30q1 9 1 35 q0 23 -1 32q-2 13 -3 30q-5 51 -10 78q-24 126 -117 137q-34 0 -70 -31q-33 -29 -48 -106q-12 -52 -13 -78q0 -27 -1 -35q-2 -12 -3 -27zM1798 147q0 118 53 204q51 83 135 128q80 43 162 43t166 -41q81 -40 137 -126t56 -208q0 -179 -114 -281t-245 -102q-133 6 -242 109 q-108 102 -108 274zM2017 147q0 -5 0.5 -10t1.5 -11t1 -9q1 -10 1 -35q1 -28 13 -80q15 -72 48 -101q34 -30 70 -30q90 0 117 131q5 27 10 80q1 6 2.5 16t1.5 14q1 9 1 35q0 23 -1 32q0 4 -1.5 14t-2.5 16q-5 51 -10 78q-24 126 -117 137q-34 0 -70 -31q-33 -29 -48 -106 q-12 -52 -13 -78q0 -27 -1 -35q-2 -12 -3 -27z" />
<glyph unicode="&#x2019;" horiz-adv-x="2592" d="M90 1047q0 119 53 205q51 82 137 128q82 43 162 43q135 0 245 -98q112 -100 112 -278q0 -120 -56 -209q-55 -88 -136 -130t-165 -42q-134 5 -242 105q-110 102 -110 276zM311 1047q1 -17 3 -30q1 -9 1 -36q5 -46 15 -80q21 -133 119 -133q29 0 65 31q35 31 47 102 q7 27 12 80q1 6 2.5 16t1.5 14q1 9 1 36q0 24 -1 33q0 4 -1.5 14t-2.5 16q-5 52 -12 76q-11 75 -44 104q-36 31 -68 31q-98 6 -119 -135q-11 -33 -15 -76q0 -27 -1 -35q-2 -13 -3 -28zM354 -223l914 1706l147 -37l-923 -1712zM938 147q0 118 53 204q51 84 134 128 q80 43 163 43q82 0 166 -41q81 -40 137 -126t56 -208q0 -179 -114 -281t-245 -102q-133 6 -242 109q-108 102 -108 274zM1157 147q0 -5 0.5 -10t1.5 -11t1 -9q1 -10 1 -35q1 -28 13 -80q15 -72 48 -101q35 -30 70 -30q90 0 117 131q5 27 10 80q1 16 3 30q1 9 1 35 q0 23 -1 32q-2 13 -3 30q-5 51 -10 78q-24 126 -117 137q-34 0 -70 -31q-33 -29 -48 -106q-12 -52 -13 -78q0 -27 -1 -35q-2 -12 -3 -27zM1798 147q0 118 53 204q51 83 135 128q80 43 162 43t166 -41q81 -40 137 -126t56 -208q0 -179 -114 -281t-245 -102q-133 6 -242 109 q-108 102 -108 274zM2017 147q0 -5 0.5 -10t1.5 -11t1 -9q1 -10 1 -35q1 -28 13 -80q15 -72 48 -101q34 -30 70 -30q90 0 117 131q5 27 10 80q1 6 2.5 16t1.5 14q1 9 1 35q0 23 -1 32q0 4 -1.5 14t-2.5 16q-5 51 -10 78q-24 126 -117 137q-34 0 -70 -31q-33 -29 -48 -106 q-12 -52 -13 -78q0 -27 -1 -35q-2 -12 -3 -27z" />
<glyph unicode="&#x491;" horiz-adv-x="2592" d="M90 1047q0 119 53 205q51 82 137 128q82 43 162 43q135 0 245 -98q112 -100 112 -278q0 -120 -56 -209q-55 -88 -136 -130t-165 -42q-134 5 -242 105q-110 102 -110 276zM311 1047q1 -17 3 -30q1 -9 1 -36q5 -46 15 -80q21 -133 119 -133q29 0 65 31q35 31 47 102 q7 27 12 80q1 6 2.5 16t1.5 14q1 9 1 36q0 24 -1 33q0 4 -1.5 14t-2.5 16q-5 52 -12 76q-11 75 -44 104q-36 31 -68 31q-98 6 -119 -135q-11 -33 -15 -76q0 -27 -1 -35q-2 -13 -3 -28zM354 -223l914 1706l147 -37l-923 -1712zM938 147q0 118 53 204q51 84 134 128 q80 43 163 43q82 0 166 -41q81 -40 137 -126t56 -208q0 -179 -114 -281t-245 -102q-133 6 -242 109q-108 102 -108 274zM1157 147q0 -5 0.5 -10t1.5 -11t1 -9q1 -10 1 -35q1 -28 13 -80q15 -72 48 -101q35 -30 70 -30q90 0 117 131q5 27 10 80q1 16 3 30q1 9 1 35 q0 23 -1 32q-2 13 -3 30q-5 51 -10 78q-24 126 -117 137q-34 0 -70 -31q-33 -29 -48 -106q-12 -52 -13 -78q0 -27 -1 -35q-2 -12 -3 -27zM1798 147q0 118 53 204q51 83 135 128q80 43 162 43t166 -41q81 -40 137 -126t56 -208q0 -179 -114 -281t-245 -102q-133 6 -242 109 q-108 102 -108 274zM2017 147q0 -5 0.5 -10t1.5 -11t1 -9q1 -10 1 -35q1 -28 13 -80q15 -72 48 -101q34 -30 70 -30q90 0 117 131q5 27 10 80q1 6 2.5 16t1.5 14q1 9 1 35q0 23 -1 32q0 4 -1.5 14t-2.5 16q-5 51 -10 78q-24 126 -117 137q-34 0 -70 -31q-33 -29 -48 -106 q-12 -52 -13 -78q0 -27 -1 -35q-2 -12 -3 -27z" />
<glyph unicode="&#xbb;" horiz-adv-x="1142" d="M133 127l270 410l-270 413h189l278 -413l-278 -410h-189zM537 127l274 410l-274 413h190l277 -413l-277 -410h-190z" />
<glyph unicode="&#x2c6;" horiz-adv-x="1310" d="M66 0v111h120v802h-120v109h512v-109h-105v-802h332v802h-103v109h512v-109h-122v-802h163v-459h-215v348h-974z" />
<glyph unicode="&#x446;" horiz-adv-x="1310" d="M66 0v111h120v802h-120v109h512v-109h-105v-802h332v802h-103v109h512v-109h-122v-802h163v-459h-215v348h-974z" />
<glyph unicode="&#x2dc;" horiz-adv-x="1216" d="M49 913v109h488v-109h-88v-268q0 -101 63 -126t96 -15q26 1 54 10q21 7 52 22q26 13 34 15v362h-82v109h489v-109h-121v-802h121v-111h-547v111h140v329q-182 -90 -359 -61q-87 24 -159 74q-70 49 -70 180v280h-111z" />
<glyph unicode="&#x447;" horiz-adv-x="1216" d="M49 913v109h488v-109h-88v-268q0 -101 63 -126t96 -15q26 1 54 10q21 7 52 22q26 13 34 15v362h-82v109h489v-109h-121v-802h121v-111h-547v111h140v329q-182 -90 -359 -61q-87 24 -159 74q-70 49 -70 180v280h-111z" />
<glyph unicode="&#x401;" horiz-adv-x="1339" d="M84 0v121h170v1210h-170v123h1137v-287h-119v142h-539v-473h455v155h117v-434h-117v152h-455v-562h584v162h110v-309h-1173zM332 1724q0 58 39 101t102 43t104 -42q39 -40 39 -102q0 -56 -41 -100q-40 -43 -102 -43q-60 0 -101 44q-40 43 -40 99zM788 1724q0 57 41 101 q40 43 101 43q62 0 103 -42q40 -41 40 -102q0 -62 -43 -102q-44 -41 -100 -41q-58 0 -100 44q-42 43 -42 99z" />
<glyph unicode="&#x203a;" horiz-adv-x="1339" d="M84 0v121h170v1210h-170v123h1137v-287h-119v142h-539v-473h455v155h117v-434h-117v152h-455v-562h584v162h110v-309h-1173zM332 1724q0 58 39 101t102 43t104 -42q39 -40 39 -102q0 -56 -41 -100q-40 -43 -102 -43q-60 0 -101 44q-40 43 -40 99zM788 1724q0 57 41 101 q40 43 101 43q62 0 103 -42q40 -41 40 -102q0 -62 -43 -102q-44 -41 -100 -41q-58 0 -100 44q-42 43 -42 99z" />
<glyph unicode="&#x405;" d="M-25 717v182h508v506h183v-506h503v-182h-503v-504h-183v504h-508z" />
<glyph unicode="&#x406;" horiz-adv-x="851" d="M98 0v121h172v1210h-172v123h172h316h166v-123h-172v-1210h172v-121h-166h-316h-172zM289 1724q0 58 39 101t102 43t104 -42q39 -40 39 -102q0 -56 -41 -100q-40 -43 -102 -43q-60 0 -101 44q-40 43 -40 99z" />
<glyph unicode="&#x407;" horiz-adv-x="851" d="M68 1731q0 58 38 100q39 43 103 43q63 0 103 -42q40 -41 40 -101q0 -57 -41 -101q-40 -43 -102 -43q-60 0 -101 44q-40 43 -40 100zM98 0v121h172v1210h-172v123h172h316h166v-123h-172v-1210h172v-121h-166h-316h-172zM524 1731q0 56 41 100q40 43 101 43q62 0 103 -42 q40 -41 40 -101q0 -63 -43 -103q-44 -41 -100 -41q-58 0 -100 44q-42 43 -42 100z" />
<glyph unicode="&#x408;" horiz-adv-x="1064" d="M143 -262v590h322l-170 -590h-152zM662 -262v590h321l-172 -590h-149z" />
<glyph unicode="&#x40e;" horiz-adv-x="1398" d="M0 1331v123h616v-123h-174l349 -669l8 -54h12l8 54l297 669h-166v123h449v-123h-162l-496 -1118q-46 -114 -101 -176q-54 -62 -171 -62q-109 0 -188 50l86 198q91 -67 145 -67q81 0 127 94l18 53l-528 1028h-129z" />
<glyph unicode="&#x410;" horiz-adv-x="1521" d="M-59 0v121h161l541 1333h178l596 -1333h164l-4 -121h-653v121h168l-119 280h-639l-111 -280h156v-121h-438zM379 520h545l-273 615l-4 49h-10l-6 -49z" />
<glyph unicode="&#x411;" horiz-adv-x="1398" d="M90 0v121h168v1210h-168v123h1065v-293h-137v148h-447v-453h144q126 0 192 -6q135 -17 269 -98q138 -83 145 -301q12 -293 -177 -372q-188 -79 -419 -79h-635zM571 125h127q121 0 199 86q78 85 76 215q-1 285 -301 285h-101v-586z" />
<glyph unicode="&#x412;" horiz-adv-x="1398" d="M90 0v121h168v1210h-168v123h678q271 0 373 -102q103 -102 110 -224q6 -128 -76 -220q-82 -93 -231 -111v-13q147 -6 259 -95t118 -255q8 -195 -144 -314q-153 -120 -374 -120h-713zM571 125h127q133 0 225 85q93 86 87 216q-1 179 -115 232t-223 53h-101v-586zM571 836 h107q130 0 204 80q75 80 70 186q-5 92 -71 160q-67 69 -207 69h-103v-495z" />
<glyph unicode="&#x413;" horiz-adv-x="1216" d="M90 0v121h168v1208h-168v125h1096v-297h-142v152h-473v-1188h189v-121h-670z" />
<glyph unicode="&#x414;" horiz-adv-x="1521" d="M0 121h162l459 1208h-160v125h172h235l486 -1333h168l-4 -524h-226v403h-1065v-403h-227v524zM315 147h703l-313 940l-11 68h-14l-12 -72z" />
<glyph unicode="&#x415;" horiz-adv-x="1339" d="M84 0v121h170v1210h-170v123h1137v-287h-119v142h-539v-473h455v155h117v-434h-117v152h-455v-562h584v162h110v-309h-1173z" />
<glyph unicode="&#x416;" horiz-adv-x="2433" d="M53 27v94q96 6 155 49q62 45 122 139l389 635l-389 387h-197v123h524v-123h-168l578 -563v563h-168v123h168h299h168v-123h-168v-563l578 563h-170v123h526v-123h-195l-393 -387l393 -635q61 -93 118 -140t157 -54v-88q-117 -61 -246 -54q-130 6 -197 62q-66 56 -127 155 l-313 543l-131 -119v-493h168v-121h-635v121h168v493l-129 119l-315 -543q-53 -92 -122 -152q-71 -62 -204 -69q-131 -2 -244 58z" />
<glyph unicode="&#x417;" horiz-adv-x="1277" d="M96 -14v379h117q10 -121 98 -197t252 -70q166 6 253 101t71 239q-17 179 -129 230t-226 51h-69v108h69q138 0 220 88q81 87 69 218q-12 117 -88 171q-77 54 -184 50q-128 -2 -200 -83q-73 -82 -79 -192h-116v344h116l37 -80q134 146 371 134q191 -6 310 -95 q117 -88 134 -235q15 -144 -65 -227q-78 -81 -187 -115l-51 -6v-11l51 -8q149 -30 238 -111t96 -208q17 -181 -127 -334t-499 -152q-233 0 -365 109v-98h-117z" />
<glyph unicode="&#x418;" horiz-adv-x="1765" d="M84 0v121h170v1210h-170v123h170h315h166v-123h-172v-928l635 875v53h-168v123h164h313h172v-123h-172v-1210h172v-121h-172h-313h-164v121h168v952l-635 -872v-80h172v-121h-166h-315h-170z" />
<glyph unicode="&#x419;" horiz-adv-x="1765" d="M84 0v121h170v1210h-170v123h170h315h166v-123h-172v-928l635 875v53h-168v123h164h313h172v-123h-172v-1210h172v-121h-172h-313h-164v121h168v952l-635 -872v-80h172v-121h-166h-315h-170zM504 1868h229q-8 -26 -8 -51q0 -107 154 -107q115 0 142 48t9 110h225 q11 -127 -81.5 -190.5t-290.5 -63.5q-155 0 -273 45t-106 209z" />
<glyph unicode="&#x41a;" horiz-adv-x="1581" d="M66 0v121h172v1210h-172v123h172h311h168v-123h-168v-569l584 569h-179v123h527v-123h-183l-407 -393l342 -604q67 -120 128 -165q62 -46 173 -44v-125q-81 -24 -178 -31q-268 -18 -402 228l-288 520l-117 -117v-479h168v-121h-168h-311h-172z" />
<glyph unicode="&#x41b;" horiz-adv-x="1581" d="M0 4l102 240q41 -41 88 -41q67 0 107 104l408 1024h-162v123h166h229l498 -1333h145v-121h-629v121h164l-350 952l-10 60h-11l-12 -60l-354 -913q-30 -76 -80 -129q-51 -55 -149 -56q-63 0 -150 29z" />
<glyph unicode="&#x41c;" horiz-adv-x="2129" d="M90 0v121h168v1210h-168v123h168h293l508 -1012l506 1012h473v-123h-170v-1210h170v-121h-170h-303h-170v121h170v1036l-506 -1028h-166l-514 1028v-1036h172v-121h-172h-121h-168z" />
<glyph unicode="&#x41d;" horiz-adv-x="1796" d="M90 0v121h168v1210h-168v123h168h320h163v-123h-170v-495h652v495h-170v123h164h317h170v-123h-170v-1210h170v-121h-170h-317h-164v121h170v588h-652v-588h170v-121h-163h-320h-168z" />
<glyph unicode="&#x41e;" horiz-adv-x="1703" d="M37 727q0 193 101 364q102 173 290 279q190 107 422 107q234 0 422 -106q187 -105 290 -279q103 -173 103 -365q0 -194 -103 -367q-103 -174 -290 -279q-188 -106 -422 -106q-232 0 -422 107q-188 106 -290 279q-101 171 -101 366zM395 727q0 -221 68 -369 q68 -147 173 -212q104 -64 214 -64q109 0 213 61t175 206t71 378q0 228 -68 373q-67 143 -173 208q-104 64 -218 64q-177 0 -316 -157t-139 -488z" />
<glyph unicode="&#x41f;" horiz-adv-x="1796" d="M90 0v121h168v1210h-168v123h168h320h639h317h170v-123h-170v-1210h170v-121h-170h-317h-164v121h170v1188h-652v-1188h170v-121h-163h-320h-168z" />
<glyph unicode="&#x420;" horiz-adv-x="1308" d="M90 0v121h168v1210h-168v123h168h379q264 0 441 -82q179 -83 179 -356q5 -103 -29 -188q-34 -87 -111 -150q-76 -63 -209 -96q-132 -33 -337 -27v-434h174v-121h-172h-315h-168zM571 666q75 -8 161 11q91 20 159 101q69 82 63 252q-6 182 -117 248q-110 65 -266 53v-665z " />
<glyph unicode="&#x421;" horiz-adv-x="1490" d="M37 719q-6 211 94 392q101 183 286 281q188 100 417 85q205 -10 364 -129l70 112h106v-411h-121q-6 127 -117 217t-259 90q-133 0 -244 -72t-178 -221q-68 -150 -60 -365q10 -262 142 -433q130 -169 370 -167q240 7 404 217l106 -79q-235 -249 -561 -261q-205 -7 -393 82 q-187 89 -304 264q-116 173 -122 398z" />
<glyph unicode="&#x422;" horiz-adv-x="1339" d="M31 1178v276h1278v-276h-135v153h-349v-1210h168v-121h-174h-147h-158h-170v121h170v1210h-352v-153h-131z" />
<glyph unicode="&#x423;" horiz-adv-x="1398" d="M0 1331v123h616v-123h-174l349 -669l8 -54h12l8 54l297 669h-166v123h449v-123h-162l-496 -1118q-46 -114 -101 -176q-54 -62 -171 -62q-109 0 -188 50l86 198q91 -67 145 -67q81 0 127 94l18 53l-528 1028h-129z" />
<glyph unicode="&#x424;" horiz-adv-x="1947" d="M68 762q2 291 240 420q239 129 517 129v94h-174v123h174h301h166v-123h-166v-94q276 0 512 -130q238 -131 238 -419q0 -168 -91 -298q-92 -131 -259 -204q-170 -74 -400 -70v-135h166v-121h-166h-145h-156h-174v121h174v135q-233 -2 -401 70q-171 73 -263 205 q-93 133 -93 297zM432 752q-2 -279 120 -375t273 -84v921q-152 8 -271 -88q-121 -96 -122 -374zM1126 293q150 -12 272 83t120 376q-1 277 -124 374q-121 96 -268 88v-921z" />
<glyph unicode="&#x425;" horiz-adv-x="1703" d="M53 0v121h168l447 590l-447 620h-137v123h664v-123h-170l299 -401l301 401h-168v123h481v-123h-174l-377 -491l526 -719h185v-121h-711v121h166l-358 500l-381 -500h159v-121h-473z" />
<glyph unicode="&#x426;" horiz-adv-x="1765" d="M90 0v121h168v1210h-168v123h168h313h170v-123h-170v-1184h627v1184h-168v123h160h317h172v-123h-172v-1210h193v-524h-246v403h-1196h-168z" />
<glyph unicode="&#x427;" horiz-adv-x="1581" d="M18 1331v123h633v-123h-168v-430q0 -227 199 -239q72 -2 166 19q94 20 162 50v600h-170v123h651v-123h-170v-1210h170v-121h-651v121h170v489q-254 -80 -408 -80q-430 0 -430 357v444h-154z" />
<glyph unicode="&#x428;" horiz-adv-x="2433" d="M90 0v121h168v1210h-168v123h168h311h172v-123h-170v-1184h496v1184h-170v123h170h299h182v-123h-170v-1184h484v1184h-170v123h172h307h172v-123h-172v-1210h172v-121h-172h-936h-977h-168z" />
<glyph unicode="&#x429;" horiz-adv-x="2433" d="M90 0v121h168v1210h-168v123h168h311h172v-123h-170v-1184h496v1184h-170v123h170h299h182v-123h-170v-1184h484v1184h-170v123h172h307h172v-123h-172v-1210h199v-527h-244v406h-891h-977h-168z" />
<glyph unicode="&#x42a;" horiz-adv-x="1644" d="M31 1024v430h991v-123h-170v-495h207q79 0 197 -23q115 -22 227 -113q110 -89 110 -274q4 -188 -137 -307q-142 -119 -475 -119h-612v121h174v1188h-371v-285h-141zM852 125l129 -4q132 0 217 88q86 89 80 217q-6 181 -112 233q-107 52 -210 52h-104v-586z" />
<glyph unicode="&#x42b;" horiz-adv-x="2129" d="M90 0v121h168v1210h-168v123h651v-123h-170v-495h197q76 0 194 -23q113 -22 229 -115q114 -92 116 -272q0 -426 -613 -426h-604zM571 121h125q126 0 212 87q85 86 83 218q-6 129 -68 190q-63 62 -130 78q-70 17 -121 17h-101v-590zM1386 0v121h170v1210h-170v123h652 v-123h-170v-1210h170v-121h-652z" />
<glyph unicode="&#x42c;" horiz-adv-x="1339" d="M90 0v121h168v1210h-168v123h651v-123h-170v-495h185q81 0 199 -23q116 -23 226 -113t111 -274q4 -188 -137 -307q-142 -119 -475 -119h-590zM571 121h109q133 0 217 88t78 217q-6 181 -112 233q-107 52 -208 52h-84v-590z" />
<glyph unicode="&#x42d;" horiz-adv-x="1525" d="M72 207l114 110q137 -225 414 -227q282 0 392 194q110 195 106 402h-606v123h604q-23 277 -159 413q-137 137 -323 132q-146 -1 -254 -91q-106 -88 -153 -231h-109l-2 410h107l84 -99q189 138 438 134q201 -1 371 -92q165 -88 262 -248q96 -159 96 -367q6 -299 -197 -540 q-203 -240 -595 -255q-376 -16 -590 232z" />
<glyph unicode="&#x42e;" horiz-adv-x="2555" d="M90 0v121h168v1210h-168v123h168h305h178v-123h-170v-495h291q40 204 153 349q111 142 283 217t381 75q101 0 280 -41q176 -40 353 -208q176 -167 176 -501q0 -148 -53 -286q-51 -132 -157 -240q-103 -105 -254 -165q-152 -61 -345 -61q-217 0 -400 83q-181 82 -295 255 q-115 173 -122 402h-291v-594h170v-121h-178h-305h-168zM1223 727q0 -231 68 -376q69 -147 174 -210t214 -63q181 0 316 159t135 490q0 228 -68 373q-67 144 -169 208q-101 64 -214 64q-177 0 -317 -157q-139 -155 -139 -488z" />
<glyph unicode="&#x42f;" horiz-adv-x="1521" d="M45 0v125q14 0 20 1t23 1q54 4 82 23q42 22 104 124l136 238q66 112 153 127v12q-78 12 -160 63q-79 49 -132 131q-52 80 -52 187q0 112 61 208t178 155t283 59h516h175v-123h-175v-1210h175v-121h-175h-311h-170v121h174v465q-108 11 -152 -24t-81 -107l-191 -367 q-62 -113 -223 -113q-133 -2 -258 25zM551 1032q-8 -200 95 -271q106 -74 304 -59v629q-381 37 -399 -299z" />
<glyph unicode="&#x430;" horiz-adv-x="1185" d="M66 326q0 150 104 245q106 97 256 103q169 8 283 -111v213q0 155 -146 170q-176 18 -305 -135l-111 139q101 58 200 77q105 20 214 20q434 0 434 -271v-665h123v-111h-409v84q-112 -117 -283 -109q-150 11 -255 108t-105 243zM365 326q0 -114 61 -171q62 -57 137 -53 q89 0 146 84v273q-51 85 -146 90q-76 0 -137 -55t-61 -168z" />
<glyph unicode="&#x431;" horiz-adv-x="1257" d="M84 610q-11 509 175 654q185 145 413 145q83 0 157 2q45 11 64 20q20 10 27 39h149q10 -163 -94 -209q-106 -47 -273 -47q-116 0 -167 -4q-191 -12 -248 -137t-51 -254l14 -4q30 76 122 153q93 78 273 79q237 6 374 -135q136 -141 142 -390q2 -166 -63 -288 q-65 -123 -186 -191t-279 -68q-163 0 -284 76t-190 218t-75 341zM389 532q0 -216 69 -344q68 -126 173 -122q107 0 168 130t57 336q0 188 -57 306t-168 118q-108 0 -174 -111q-66 -112 -68 -313z" />
<glyph unicode="&#x432;" horiz-adv-x="1200" d="M66 0v111h120v802h-120v109h591q128 0 250 -43q124 -44 131 -180q2 -68 -36 -121q-38 -54 -103 -83q-67 -30 -139 -26v-18q133 0 239 -68q105 -67 105 -202q2 -158 -105 -220q-106 -61 -294 -61h-639zM461 111h117q122 0 178 63q55 63 49 152q-6 86 -68 136t-159 50h-117 v-401zM461 616h117q99 0 146.5 39.5t43.5 118.5q-1 88 -59 114q-56 25 -107 25h-141v-297z" />
<glyph unicode="&#x201a;" horiz-adv-x="1200" d="M66 0v111h120v802h-120v109h591q128 0 250 -43q124 -44 131 -180q2 -68 -36 -121q-38 -54 -103 -83q-67 -30 -139 -26v-18q133 0 239 -68q105 -67 105 -202q2 -158 -105 -220q-106 -61 -294 -61h-639zM461 111h117q122 0 178 63q55 63 49 152q-6 86 -68 136t-159 50h-117 v-401zM461 616h117q99 0 146.5 39.5t43.5 118.5q-1 88 -59 114q-56 25 -107 25h-141v-297z" />
<glyph unicode="&#x433;" horiz-adv-x="940" d="M66 0v111h120v802h-120v109h835v-287h-149v178h-279v-802h141v-111h-548z" />
<glyph unicode="&#x201e;" horiz-adv-x="940" d="M66 0v111h120v802h-120v109h835v-287h-149v178h-279v-802h141v-111h-548z" />
<glyph unicode="&#x434;" horiz-adv-x="1249" d="M37 111h156l290 813h-129v110h381l348 -923h127v-455h-209v344h-755v-344h-209v455zM322 111h469l-222 655l-8 61h-10l-6 -61z" />
<glyph unicode="&#x435;" horiz-adv-x="1103" d="M59 526q0 148 64 268q62 117 181 185t267 68q158 0 269 -78q109 -77 162 -207t38 -262h-675q-2 -217 95 -322q98 -106 228 -90q156 16 262 193l90 -95q-190 -227 -460 -211q-152 11 -270 82q-118 72 -184 195q-67 125 -67 274zM365 610h395q6 110 -19 191q-24 79 -70 117 q-45 38 -102 38q-87 0 -147 -87q-59 -85 -57 -259z" />
<glyph unicode="&#x436;" horiz-adv-x="1861" d="M37 0v104q73 6 122 49q44 39 113 134l260 364l-260 264h-159v107h419v-109l-122 2l401 -399v399h-125v107h481v-107h-120v-399l401 399h-125v107h422v-107h-164l-258 -264l258 -364q56 -76 81 -102q30 -31 70 -55q41 -25 87 -26v-104q-102 -47 -213 -25q-29 0 -95 30 q-65 30 -112 99l-252 379l-100 -104v-275h120v-104h-120h-107h-129h-125v104h125v275l-102 104l-250 -379q-44 -65 -112 -97q-67 -32 -97 -32q-109 -21 -213 25z" />
<glyph unicode="&#x437;" horiz-adv-x="1044" d="M59 115l84 149q52 -106 122 -144t163 -38q99 1 163 55q62 51 60 148q-6 192 -266 192h-12v86h12q137 0 197 69q59 67 51 152q-6 73 -56 114q-49 40 -122 40q-89 0 -153 -51t-64 -162h-103v297h103v-51l-15 -27l13 -6l14 25q86 86 287 84q176 -1 263 -79q85 -76 93 -169 q16 -121 -71 -192t-177 -75h-37v-12l37 -4q62 0 129 -16q68 -16 126 -70q56 -52 56 -151q0 -121 -108 -212q-109 -92 -395 -92q-246 0 -394 140z" />
<glyph unicode="&#x438;" horiz-adv-x="1353" d="M72 0v111h121v802h-121v109h528v-109h-123v-553l387 541v12h-119v109h529v-109h-121v-802h121v-111h-529v111h119v630l-387 -534v-96h125v-111h-530z" />
<glyph unicode="&#x439;" horiz-adv-x="1353" d="M72 0v111h121v802h-121v109h528v-109h-123v-553l387 541v12h-119v109h529v-109h-121v-802h121v-111h-529v111h119v630l-387 -534v-96h125v-111h-530zM373 1409h198q-8 -91 28 -125q37 -35 75 -35q41 0 77 38q36 37 25 122h199q8 -108 -86 -184t-215 -76q-120 0 -215 77 q-94 76 -86 183z" />
<glyph unicode="&#x43a;" horiz-adv-x="1280" d="M59 0v111h123v802h-123v109h529v-109h-121v-376l389 376h-117v109h410v-109h-145l-228 -217l328 -512q44 -73 141 -80v-104q-87 -25 -141 -25q-135 -7 -209 47t-129 142l-193 334l-106 -103v-284h121v-111h-529z" />
<glyph unicode="&#x43b;" horiz-adv-x="1273" d="M41 4v215q39 -47 113 -47q69 0 101 41q30 39 52 109l225 602h-200v110h444l334 -923h123v-111h-545v111h127l-199 655l-6 61h-10l-8 -61l-238 -616q-31 -81 -66 -124q-37 -45 -116 -51q-36 0 -72 11q-54 16 -59 18z" />
<glyph unicode="&#x43c;" horiz-adv-x="1540" d="M72 0v111h121v802h-121v109h387l307 -655l2 -45h12l8 45l287 655h385v-109h-121v-802h121v-111h-506v111h121v673l8 56h-10l-14 -56l-318 -702h-96l-323 706l-13 52h-12l6 -52v-677h129v-111h-360z" />
<glyph unicode="&#x43d;" horiz-adv-x="1331" d="M72 0v111h121v802h-121v109h512v-109h-105v-305h363v305h-101v109h512v-109h-120v-802h120v-111h-512v111h101v387h-363v-387h105v-111h-512z" />
<glyph unicode="&#x43e;" horiz-adv-x="1220" d="M78 512q0 228 158 381q159 154 370 154q133 0 256 -70q122 -69 194 -191q72 -121 72 -274q0 -230 -157 -383q-159 -154 -365 -154q-210 0 -369 156t-159 381zM381 512q0 -446 225 -446q76 0 148 86q71 84 71 360q0 275 -71 358q-72 84 -148 84q-225 0 -225 -442z" />
<glyph unicode="&#x43f;" horiz-adv-x="1310" d="M78 0v111h123v802h-123v109h1149v-109h-123v-802h123v-111h-512v111h104v802h-334v-802h103v-111h-510z" />
<glyph unicode="&#x440;" horiz-adv-x="1298" d="M78 -311h123v1224h-123v109h407v-82l-8 -49h12q63 156 267 156q123 0 227 -61q102 -60 162 -176q59 -115 61 -284q8 -253 -116 -399q-125 -147 -334 -152q-204 0 -267 154h-12l8 -47v-393h140v-109h-547v109zM479 397q1 -158 63 -223q60 -63 132 -63q92 -5 157 80 q66 85 66 321q0 161 -34 248q-34 88 -84 121q-48 32 -105 32q-72 0 -132 -64q-62 -66 -63 -226v-111v-115z" />
<glyph unicode="&#x441;" horiz-adv-x="1101" d="M78 504q-4 134 53 259q57 123 169 201q112 77 269 83q184 4 308 -103l8 -35h12l-4 37l-2 76h127l4 -344h-129q-21 140 -84 201q-62 61 -141 61q-78 6 -146 -46q-69 -52 -106 -160q-37 -105 -35 -255q6 -216 98 -317t215 -101q116 6 258 148l66 -107q-121 -127 -375 -127 q-251 0 -406 147t-159 382z" />
<glyph unicode="&#x442;" horiz-adv-x="1087" d="M49 735v287h985v-287h-155v178h-197v-802h143v-111h-569v111h141v802h-194v-178h-154z" />
<glyph unicode="&#x443;" horiz-adv-x="1257" d="M41 913v109h545v-109h-123l254 -522l16 -69h12l11 69l217 522h-121v109h365v-109h-125l-482 -1169q-44 -102 -99 -147q-59 -48 -146 -48q-78 0 -138 45l76 183q67 -62 117 -62q58 0 88 76l84 205l-459 917h-92z" />
<glyph unicode="&#x444;" horiz-adv-x="1658" d="M72 526q6 186 62 298q57 114 145 168q90 55 184 55q178 0 235 -156h13l-6 31l-7 409h-120v111h376v-502l-8 -49h10q60 156 234 156q96 0 186 -55q89 -54 146 -169q58 -115 59 -297q8 -277 -107 -412q-116 -136 -282 -141q-184 0 -236 156h-10l8 -47v-422h121v-111h-497 v111h120l7 438l6 31h-13q-57 -156 -235 -156q-164 5 -281 140q-116 134 -110 413zM350 512q0 -207 48.5 -307t146.5 -94q103 2 133 95q31 96 31 191v115v111q0 96 -31 194q-30 94 -133 96q-97 2 -146 -98t-49 -303zM950 397q0 -285 162 -286q94 -6 141 94t47 307 q0 203 -47 303t-141 98q-162 -5 -162 -290v-111v-115z" />
<glyph unicode="&#x445;" horiz-adv-x="1249" d="M66 0v111h106l307 356l-307 446h-100v109h536v-109h-119l168 -235l203 235h-129v109h397v-109h-127l-276 -325l348 -477h101v-111h-566v111h123l-186 268l-234 -268h178v-111h-423z" />
<glyph unicode="&#x448;" horiz-adv-x="1867" d="M72 0v111h121v802h-121v109h512v-109h-105v-802h309v802h-106v109h494v-109h-103v-802h307v802h-102v109h510v-109h-123v-802h123v-111h-1716z" />
<glyph unicode="&#x449;" horiz-adv-x="1875" d="M72 0v111h121v802h-121v109h512v-109h-105v-802h309v802h-106v109h494v-109h-103v-802h307v802h-102v109h510v-109h-123v-802h170v-459h-215v348h-1548z" />
<glyph unicode="&#x44a;" horiz-adv-x="1388" d="M59 733v291l820 -2v-109h-140v-299h211q194 0 285 -96q92 -97 88 -217q0 -123 -95 -212t-290 -89h-606v111h121v802h-244v-180h-150zM739 111h37q36 0 54 -1q26 -1 49 5q59 17 98 68q41 53 41 118q0 218 -279 191v-381z" />
<glyph unicode="&#x44b;" horiz-adv-x="1669" d="M59 0v111h123v802h-123v109h549v-109h-141v-299h207q195 0 287 -95t92 -218q-5 -125 -99 -213t-288 -88h-607zM467 111h41q35 0 51 -1q23 -1 49 5q60 16 100 67q40 50 40 119q0 218 -281 191v-381zM1079 0v111h121v802h-121v109h529v-109h-119v-802h119v-111h-529z" />
<glyph unicode="&#x44c;" horiz-adv-x="1132" d="M72 0v111h121v802h-121v109h549v-109h-142v-299h207q195 0 289 -97q95 -97 90 -216q-5 -125 -99 -213t-288 -88h-606zM479 111h41q33 0 50 -1q25 -1 51 5q59 17 98 68q41 53 41 118q0 218 -281 191v-381z" />
<glyph unicode="&#x44d;" horiz-adv-x="1058" d="M53 150l97 129q37 -74 71 -116q37 -46 91 -73q51 -26 116 -24q106 0 183 95t75 298h-313v104h313q-1 200 -74 298q-72 97 -178 93q-94 0 -156 -75q-63 -77 -63 -199h-119v342h119l-2 -57l-12 -27l12 -8l14 28q114 88 262 89q142 0 255 -67t177 -182t70 -261 q6 -130 -46 -256t-168 -212q-117 -87 -288 -94q-273 -12 -436 175z" />
<glyph unicode="&#x44e;" horiz-adv-x="1789" d="M78 0v111h123v802h-123v109h530v-109h-123v-299l170 -4q45 200 195 318q151 119 324 119q97 0 197 -41q97 -40 170 -111q71 -70 115 -172q44 -103 44 -211q0 -147 -74 -272q-75 -128 -194 -195q-123 -70 -258 -70q-201 0 -358 146q-158 147 -165 379l-166 4v-393h123 v-111h-530zM954 512q0 -446 219 -446q222 0 222 446q0 442 -222 442q-219 0 -219 -442z" />
<glyph unicode="&#x44f;" horiz-adv-x="1206" d="M41 10v105q30 -11 61 -11q82 0 142 80q22 36 65 90q35 51 64 91q27 34 39 41q16 12 20 12l23 6v10q-131 -18 -229 71q-97 88 -91 228q12 184 140 237q126 52 253 52h506h119v-109h-121v-802h121v-111h-530v111h122v317h-77l-195 -326q-76 -127 -227 -127q-95 -2 -205 35z M418 727q-4 -106 49.5 -158.5t165.5 -52.5h112v397h-112q-213 0 -215 -186z" />
<glyph unicode="&#x451;" horiz-adv-x="1103" d="M59 526q0 148 64 268q62 117 181 185t267 68q158 0 269 -78q109 -77 162 -207t38 -262h-675q-2 -217 95 -322q98 -106 228 -90q156 16 262 193l90 -95q-190 -227 -460 -211q-152 11 -270 82q-118 72 -184 195q-67 125 -67 274zM186 1309q0 62 43 106q43 45 111 45 q58 0 105 -44t47 -107q0 -61 -43 -107q-44 -47 -109 -47q-62 0 -108 46t-46 108zM365 610h395q6 110 -19 191q-24 79 -70 117q-45 38 -102 38q-87 0 -147 -87q-59 -85 -57 -259zM645 1309q0 62 43 106q44 45 109 45q63 0 108 -45t45 -106q0 -64 -47 -109t-106 -45 q-65 0 -109 47q-43 46 -43 107z" />
<glyph unicode="&#x455;" horiz-adv-x="1603" d="M115 150q0 74 48 126q49 54 122 54q74 0 122 -52t48 -128q0 -69 -53 -122t-117 -53q-65 0 -118 53q-52 52 -52 122zM627 150q0 74 48 126q49 54 122 54q74 0 122 -52t48 -128q0 -69 -53 -122t-117 -53q-65 0 -118 53q-52 52 -52 122zM1139 150q0 74 48 126q49 54 122 54 q74 0 122 -52t48 -128q0 -69 -53 -122t-117 -53q-65 0 -118 53q-52 52 -52 122z" />
<glyph unicode="&#x2026;" horiz-adv-x="1603" d="M115 150q0 74 48 126q49 54 122 54q74 0 122 -52t48 -128q0 -69 -53 -122t-117 -53q-65 0 -118 53q-52 52 -52 122zM627 150q0 74 48 126q49 54 122 54q74 0 122 -52t48 -128q0 -69 -53 -122t-117 -53q-65 0 -118 53q-52 52 -52 122zM1139 150q0 74 48 126q49 54 122 54 q74 0 122 -52t48 -128q0 -69 -53 -122t-117 -53q-65 0 -118 53q-52 52 -52 122z" />
<glyph unicode="&#x457;" horiz-adv-x="661" d="M-53 1352q0 62 43 106q43 45 110 45q59 0 106 -44q46 -43 46 -107q0 -61 -43 -107q-44 -47 -109 -47q-61 0 -107 46t-46 108zM72 0v111h121v802h-121v109h407v-911h123v-111h-530zM406 1352q0 62 43 106q44 45 108 45t109 -45t45 -106q0 -64 -47 -109q-46 -45 -107 -45 q-64 0 -108 47q-43 46 -43 107z" />
<glyph unicode="&#x458;" horiz-adv-x="1142" d="M-25 717v182h1192v-182h-1192zM420 389q0 62 46 108t105 46q61 0 107 -45q47 -45 47 -109q0 -61 -45 -106t-109 -45t-107 46q-44 47 -44 105zM420 1229q0 58 44 105q43 46 107 46q41 0 77 -21t57 -57q20 -34 20 -73q0 -61 -44 -108q-43 -46 -110 -46q-64 0 -108 47 q-43 46 -43 107z" />
<glyph unicode="&#x45e;" horiz-adv-x="1257" d="M41 913v109h545v-109h-123l254 -522l16 -69h12l11 69l217 522h-121v109h365v-109h-125l-482 -1169q-44 -102 -99 -147q-59 -48 -146 -48q-78 0 -138 45l76 183q67 -62 117 -62q58 0 88 76l84 205l-459 917h-92z" />
<glyph unicode="&#x2000;" horiz-adv-x="937" />
<glyph unicode="&#x2001;" horiz-adv-x="1874" />
<glyph unicode="&#x2002;" horiz-adv-x="937" />
<glyph unicode="&#x2003;" horiz-adv-x="1874" />
<glyph unicode="&#x2004;" horiz-adv-x="624" />
<glyph unicode="&#x2005;" horiz-adv-x="468" />
<glyph unicode="&#x2006;" horiz-adv-x="312" />
<glyph unicode="&#x2007;" horiz-adv-x="312" />
<glyph unicode="&#x2008;" horiz-adv-x="234" />
<glyph unicode="&#x2009;" horiz-adv-x="374" />
<glyph unicode="&#x200a;" horiz-adv-x="104" />
<glyph unicode="&#x2010;" horiz-adv-x="761" d="M102 428v197h555v-197h-555z" />
<glyph unicode="&#x2011;" horiz-adv-x="761" d="M102 428v197h555v-197h-555z" />
<glyph unicode="&#x2012;" horiz-adv-x="761" d="M102 428v197h555v-197h-555z" />
<glyph unicode="&#x2013;" horiz-adv-x="1521" d="M162 717v182h1194v-182h-1194z" />
<glyph unicode="&#x2014;" horiz-adv-x="2373" d="M66 651v170h2242v-170h-2242z" />
<glyph unicode="&#x2018;" horiz-adv-x="442" d="M59 862l170 592h152v-592h-322z" />
<glyph unicode="&#x201c;" horiz-adv-x="1064" d="M113 887l168 590h153v-590h-321zM631 887l168 590h153v-590h-321z" />
<glyph unicode="&#x201d;" horiz-adv-x="1064" d="M113 887v590h321l-170 -590h-151zM631 887v590h321l-172 -590h-149z" />
<glyph unicode="&#x202f;" horiz-adv-x="374" />
<glyph unicode="&#x2039;" horiz-adv-x="2287" d="M59 0v121h170v1210h-170v123h453l797 -1069v946h-170v123h426v-123h-148v-1331h-176l-895 1167v-1046h166v-121h-453zM1548 784q0 85 35 172q35 86 113 146q77 59 194 59q114 0 191 -59t112 -146t35 -172q0 -141 -86 -260q-85 -118 -252 -118q-117 0 -194 59 q-79 61 -113 146q-35 88 -35 173zM1565 113v127h647v-127h-647zM1749 784q0 -305 135 -305q141 0 141 305q0 299 -141 299q-135 0 -135 -299z" />
<glyph unicode="&#x205f;" horiz-adv-x="468" />
<glyph unicode="&#x2122;" horiz-adv-x="1824" d="M61 1503v135h639v-135h-67v74h-174v-602h84v-64h-88h-74h-78h-86v64h86v602h-176v-74h-66zM778 909v60h84v608h-84v61h84h148l254 -505l252 505h237v-61h-86v-608h86v-60h-86h-151h-84v60h84v518l-252 -514h-84l-256 514v-518h86v-60h-86h-62h-84z" />
<glyph unicode="&#xe000;" horiz-adv-x="1024" d="M0 0v1024h1024v-1024h-1024z" />
</font>
</defs>
</svg>
