<?xml version="1.0" encoding="UTF-8"?>
<!DOCTYPE svg PUBLIC "-//W3C//DTD SVG 1.1//EN" "http://www.w3.org/Graphics/SVG/1.1/DTD/svg11.dtd">
<!-- Creator: CorelDRAW -->
<svg xmlns="http://www.w3.org/2000/svg" xml:space="preserve" width="1542px" height="204px" style="shape-rendering:geometricPrecision; text-rendering:geometricPrecision; image-rendering:optimizeQuality; fill-rule:evenodd; clip-rule:evenodd"
viewBox="0 0 1583.98 209.957"
 xmlns:xlink="http://www.w3.org/1999/xlink">
 <defs>
  <style type="text/css">
   <![CDATA[
    .fil3 {fill:none;fill-rule:nonzero}
    .fil0 {fill:black;fill-rule:nonzero}
    .fil1 {fill:#231F20;fill-rule:nonzero}
    .fil2 {fill:#DC3333;fill-rule:nonzero}
   ]]>
  </style>
    <clipPath id="id0" style="clip-rule:nonzero">
     <path d="M816.61 205.752m99.9108 -199.443l29.6875 199.443 -53.109 0 -2.56533 -35.8685 -18.6281 0 -3.06991 35.8685 -53.6973 0 26.3653 -199.443 75.0168 0zm-27.4581 128.253c-2.65023,-22.581 -5.2568,-50.5024 -7.90583,-83.6795 -5.2568,38.1391 -8.53655,66.0181 -9.83922,83.6795l17.7451 0z"/>
    </clipPath>
    <clipPath id="id1" style="clip-rule:nonzero">
     <path d="M944.735 205.752m131.447 -112.484l-51.8476 0 0 -34.7332c0,-10.0915 -0.588267,-16.3987 -1.68232,-18.9228 -1.09284,-2.48043 -3.53203,-3.74186 -7.31513,-3.74186 -4.28889,0 -6.98037,1.51373 -8.15811,4.54118 -1.1353,3.06991 -1.72356,9.62939 -1.72356,19.7221l0 92.6357c0,9.71308 0.588267,16.0215 1.72356,18.964 1.17775,2.98621 3.74308,4.45749 7.77968,4.45749 3.86801,0 6.39089,-1.47127 7.56742,-4.45749 1.17775,-2.94255 1.80847,-9.88168 1.80847,-20.815l0 -24.9765 51.8476 0 0 7.73602c0,20.6051 -1.47127,35.239 -4.37258,43.8593 -2.90131,8.62024 -9.3771,16.1889 -19.3437,22.6647 -9.96537,6.47579 -22.2862,9.75553 -36.8765,9.75553 -15.2222,0 -27.7529,-2.77517 -37.5921,-8.28426 -9.84044,-5.50788 -16.3999,-13.119 -19.596,-22.8333 -3.19605,-9.75553 -4.79347,-24.3882 -4.79347,-43.9417l0 -58.2397c0,-14.3804 0.504576,-25.1451 1.47127,-32.3365 1.00915,-7.1902 3.91167,-14.1281 8.83129,-20.7725 4.87716,-6.64317 11.6477,-11.9 20.3104,-15.7267 8.66148,-3.78432 18.6281,-5.71893 29.8549,-5.71893 15.3047,0 27.9203,2.98621 37.8444,8.87253 9.92292,5.92998 16.4412,13.2876 19.5948,22.1188 3.11115,8.83007 4.66732,22.581 4.66732,41.209l0 18.964z"/>
    </clipPath>
    <clipPath id="id2" style="clip-rule:nonzero">
     <path d="M1084.42 205.752m131.448 -112.484l-51.8476 0 0 -34.7332c0,-10.0915 -0.588267,-16.3987 -1.68232,-18.9228 -1.09284,-2.48043 -3.53203,-3.74186 -7.31635,-3.74186 -4.28889,0 -6.98037,1.51373 -8.15811,4.54118 -1.1353,3.06991 -1.72356,9.62939 -1.72356,19.7221l0 92.6357c0,9.71308 0.588267,16.0215 1.72356,18.964 1.17775,2.98621 3.74308,4.45749 7.77968,4.45749 3.86922,0 6.3921,-1.47127 7.56863,-4.45749 1.17775,-2.94255 1.80847,-9.88168 1.80847,-20.815l0 -24.9765 51.8476 0 0 7.73602c0,20.6051 -1.47127,35.239 -4.37258,43.8593 -2.90131,8.62024 -9.3771,16.1889 -19.3437,22.6647 -9.96537,6.47579 -22.2862,9.75553 -36.8777,9.75553 -15.2222,0 -27.7529,-2.77517 -37.5921,-8.28426 -9.84044,-5.50788 -16.3999,-13.119 -19.596,-22.8333 -3.19605,-9.75553 -4.79347,-24.3882 -4.79347,-43.9417l0 -58.2397c0,-14.3804 0.504576,-25.1451 1.47127,-32.3365 1.00915,-7.1902 3.91167,-14.1281 8.83129,-20.7725 4.87716,-6.64317 11.6477,-11.9 20.3104,-15.7267 8.66148,-3.78432 18.6281,-5.71893 29.8549,-5.71893 15.3059,0 27.9215,2.98621 37.8456,8.87253 9.92292,5.92998 16.4412,13.2876 19.5948,22.1188 3.11115,8.83007 4.66732,22.581 4.66732,41.209l0 18.964z"/>
    </clipPath>
    <clipPath id="id3" style="clip-rule:nonzero">
     <path d="M1224.11 205.752m10.3438 -199.443l86.4971 0 0 39.9051 -34.6071 0 0 37.8031 32.379 0 0 37.9717 -32.379 0 0 43.8581 38.0554 0 0 39.9051 -89.9455 0 0 -199.443z"/>
    </clipPath>
    <clipPath id="id4" style="clip-rule:nonzero">
     <path d="M1328.94 205.752m120.221 -139.102l-48.1469 0 0 -14.7588c0,-6.89668 -0.631932,-11.3117 -1.85092,-13.2039 -1.21899,-1.89216 -3.27974,-2.81762 -6.18105,-2.81762 -3.11236,0 -5.46664,1.26144 -7.06406,3.82677 -1.59863,2.52288 -2.39795,6.39089 -2.39795,11.564 0,6.64317 0.88422,11.6889 2.69147,15.0536 1.72478,3.36343 6.64439,7.40004 14.6764,12.1947 23.0843,13.7072 37.5921,24.9353 43.6058,33.7241 6.01245,8.78762 8.99867,22.9594 8.99867,42.5117 0,14.213 -1.68232,24.6842 -5.00452,31.4123 -3.32219,6.72687 -9.75553,12.4046 -19.2588,16.9457 -9.5457,4.54118 -20.6051,6.85422 -33.262,6.85422 -13.8758,0 -25.7346,-2.64902 -35.5313,-7.90583 -9.84044,-5.25559 -16.2738,-11.9424 -19.3012,-20.0581 -3.02745,-8.1569 -4.54118,-19.6784 -4.54118,-34.6483l0 -13.0353 48.1469 0 0 24.2621c0,7.48494 0.673172,12.2784 2.0183,14.4229 1.38758,2.10321 3.78432,3.19605 7.23265,3.19605 3.44834,0 6.01245,-1.34513 7.69478,-4.07906 1.68232,-2.69026 2.52288,-6.72808 2.52288,-12.0674 0,-11.7326 -1.59742,-19.4274 -4.79347,-23.0443 -3.27974,-3.61572 -11.3954,-9.62939 -24.2633,-18.081 -12.9091,-8.57779 -21.4445,-14.76 -25.6497,-18.6281 -4.16275,-3.86922 -7.65354,-9.20972 -10.3863,-16.0215 -2.77517,-6.81177 -4.12151,-15.5157 -4.12151,-26.113 0,-15.2634 1.93461,-26.449 5.84507,-33.5143 3.86922,-7.06406 10.1764,-12.5719 18.8803,-16.5673 8.70514,-3.95291 19.2175,-5.97122 31.5372,-5.97122 13.4986,0 24.9777,2.1869 34.4397,6.51824 9.50324,4.37258 15.768,9.83922 18.8803,16.4836 3.06991,6.60194 4.58363,17.8287 4.58363,33.6816l0 7.86337z"/>
    </clipPath>
    <clipPath id="id5" style="clip-rule:nonzero">
     <path d="M1459.43 205.752m120.221 -139.102l-48.1469 0 0 -14.7588c0,-6.89668 -0.631932,-11.3117 -1.85092,-13.2039 -1.21899,-1.89216 -3.27974,-2.81762 -6.18105,-2.81762 -3.11236,0 -5.46664,1.26144 -7.06406,3.82677 -1.59863,2.52288 -2.39795,6.39089 -2.39795,11.564 0,6.64317 0.88422,11.6889 2.69147,15.0536 1.72478,3.36343 6.64439,7.40004 14.6764,12.1947 23.0843,13.7072 37.5921,24.9353 43.6058,33.7241 6.01245,8.78762 8.99867,22.9594 8.99867,42.5117 0,14.213 -1.68232,24.6842 -5.00452,31.4123 -3.32219,6.72687 -9.75553,12.4046 -19.2588,16.9457 -9.5457,4.54118 -20.6051,6.85422 -33.262,6.85422 -13.8758,0 -25.7346,-2.64902 -35.5313,-7.90583 -9.84044,-5.25559 -16.2738,-11.9424 -19.3012,-20.0581 -3.02745,-8.1569 -4.54118,-19.6784 -4.54118,-34.6483l0 -13.0353 48.1469 0 0 24.2621c0,7.48494 0.673172,12.2784 2.0183,14.4229 1.38758,2.10321 3.78432,3.19605 7.23265,3.19605 3.44834,0 6.01245,-1.34513 7.69478,-4.07906 1.68232,-2.69026 2.52288,-6.72808 2.52288,-12.0674 0,-11.7326 -1.59742,-19.4274 -4.79347,-23.0443 -3.27974,-3.61572 -11.3954,-9.62939 -24.2633,-18.081 -12.9091,-8.57779 -21.4445,-14.76 -25.6497,-18.6281 -4.16275,-3.86922 -7.65354,-9.20972 -10.3863,-16.0215 -2.77517,-6.81177 -4.12151,-15.5157 -4.12151,-26.113 0,-15.2634 1.93461,-26.449 5.84507,-33.5143 3.86922,-7.06406 10.1764,-12.5719 18.8803,-16.5673 8.70514,-3.95291 19.2175,-5.97122 31.5372,-5.97122 13.4986,0 24.9777,2.1869 34.4397,6.51824 9.50324,4.37258 15.768,9.83922 18.8803,16.4836 3.06991,6.60194 4.58363,17.8287 4.58363,33.6816l0 7.86337z"/>
    </clipPath>
    <clipPath id="id6" style="clip-rule:nonzero">
     <path d="M114.166 64.5469l-48.1482 0 0 -14.76c0,-6.89668 -0.630719,-11.3117 -1.84971,-13.2039 -1.2202,-1.89216 -3.27974,-2.81762 -6.18226,-2.81762 -3.11115,0 -5.46543,1.26265 -7.06406,3.82677 -1.59742,2.52288 -2.39673,6.3921 -2.39673,11.564 0,6.64439 0.883007,11.6901 2.69147,15.0548 1.72356,3.36343 6.64439,7.40004 14.6751,12.1935 23.0855,13.7084 37.5921,24.9365 43.6058,33.7253 6.01367,8.78762 8.99867,22.9582 8.99867,42.5117 0,14.213 -1.68232,24.6842 -5.0033,31.411 -3.32219,6.72808 -9.75553,12.4058 -19.2588,16.9469 -9.5457,4.54118 -20.6051,6.85422 -33.262,6.85422 -13.8758,0 -25.7346,-2.65023 -35.5326,-7.90583 -9.83922,-5.25559 -16.2726,-11.9424 -19.3012,-20.0581 -3.02745,-8.1569 -4.54118,-19.6784 -4.54118,-34.6483l0 -13.0365 48.1469 0 0 24.2633c0,7.48494 0.673172,12.2784 2.0183,14.4229 1.38758,2.10321 3.78432,3.19605 7.23265,3.19605 3.44834,0 6.01367,-1.34513 7.69599,-4.07784 1.68111,-2.69269 2.52288,-6.72929 2.52288,-12.0698 0,-11.7314 -1.59742,-19.4274 -4.79347,-23.0431 -3.28095,-3.61572 -11.3954,-9.62939 -24.2633,-18.081 -12.9091,-8.579 -21.4457,-14.76 -25.6509,-18.6293 -4.16275,-3.86801 -7.65354,-9.2085 -10.3863,-16.0203 -2.77517,-6.81177 -4.1203,-15.5169 -4.1203,-26.1142 0,-15.2634 1.93461,-26.449 5.84386,-33.513 3.86922,-7.06406 10.1764,-12.5732 18.8816,-16.5685 8.70393,-3.9517 19.2175,-5.97 31.5372,-5.97 13.4974,0 24.9777,2.18569 34.4385,6.51824 9.50446,4.37258 15.7692,9.83922 18.8816,16.4824 3.06869,6.60194 4.58363,17.83 4.58363,33.6828l0 7.86337zm20.6027 -60.3417l52.2272 0c14.1281,0 25.0189,1.09284 32.5876,3.32219 7.61109,2.22814 13.33,5.42297 17.1155,9.58694 3.82556,4.20399 6.43334,9.29341 7.77968,15.2222 1.34513,5.97 2.01709,15.1797 2.01709,27.6692l0 17.3666c0,12.7405 -1.30268,22.0339 -3.91046,27.8366 -2.64902,5.84507 -7.48373,10.3026 -14.5065,13.4562 -7.02282,3.11115 -16.1901,4.66732 -27.5018,4.66732l-13.9183 0 0 80.3161 -51.89 0 0 -199.443zm51.89 34.1013l0 50.7547c1.47249,0.0849045 2.73393,0.126144 3.78432,0.126144 4.79347,0 8.07442,-1.17653 9.92534,-3.48958 1.84849,-2.35428 2.77517,-7.23265 2.77517,-14.5915l0 -16.3999c0,-6.81177 -1.0516,-11.268 -3.19605,-13.2876 -2.14566,-2.06075 -6.55948,-3.11236 -13.2888,-3.11236zm158.066 -34.1013l29.6875 199.443 -53.109 0 -2.56533 -35.8685 -18.6281 0 -3.06991 35.8685 -53.6985 0 26.3653 -199.443 75.018 0zm-27.4581 128.253c-2.65023,-22.581 -5.2568,-50.5024 -7.90583,-83.6807 -5.2568,38.1403 -8.53655,66.0181 -9.83922,83.6807l17.7451 0zm156.552 -128.253l0 39.9051 -30.7803 0 0 159.538 -51.8476 0 0 -159.538 -30.6966 0 0 -39.9051 113.325 0zm63.7475 0l0 199.443 -51.89 0 0 -199.443 51.89 0zm110.381 0l29.6887 199.443 -53.1102 0 -2.56412 -35.8685 -18.6293 0 -3.06991 35.8685 -53.6973 0 26.3653 -199.443 75.0168 0zm-27.4581 128.253c-2.64902,-22.581 -5.2568,-50.5024 -7.90461,-83.6807 -5.2568,38.1403 -8.53776,66.0181 -9.84044,83.6807l17.7451 0zm117.908 -128.253l0 159.538 31.5372 0 0 39.9051 -83.4272 0 0 -199.443 51.89 0z"/>
    </clipPath>
 </defs>
 <g id="Layer_x0020_1">
  <metadata id="CorelCorpID_0Corel-Layer"/>
  <g id="_236881384">
   <path id="_236437752" class="fil0" d="M816.61 205.752m99.9108 -199.443l29.6875 199.443 -53.109 0 -2.56533 -35.8685 -18.6281 0 -3.06991 35.8685 -53.6973 0 26.3653 -199.443 75.0168 0zm-27.4581 128.253c-2.65023,-22.581 -5.2568,-50.5024 -7.90583,-83.6795 -5.2568,38.1391 -8.53655,66.0181 -9.83922,83.6795l17.7451 0zm55.6731 71.19m131.447 -112.484l-51.8476 0 0 -34.7332c0,-10.0915 -0.588267,-16.3987 -1.68232,-18.9228 -1.09284,-2.48043 -3.53203,-3.74186 -7.31513,-3.74186 -4.28889,0 -6.98037,1.51373 -8.15811,4.54118 -1.1353,3.06991 -1.72356,9.62939 -1.72356,19.7221l0 92.6357c0,9.71308 0.588267,16.0215 1.72356,18.964 1.17775,2.98621 3.74308,4.45749 7.77968,4.45749 3.86801,0 6.39089,-1.47127 7.56742,-4.45749 1.17775,-2.94255 1.80847,-9.88168 1.80847,-20.815l0 -24.9765 51.8476 0 0 7.73602c0,20.6051 -1.47127,35.239 -4.37258,43.8593 -2.90131,8.62024 -9.3771,16.1889 -19.3437,22.6647 -9.96537,6.47579 -22.2862,9.75553 -36.8765,9.75553 -15.2222,0 -27.7529,-2.77517 -37.5921,-8.28426 -9.84044,-5.50788 -16.3999,-13.119 -19.596,-22.8333 -3.19605,-9.75553 -4.79347,-24.3882 -4.79347,-43.9417l0 -58.2397c0,-14.3804 0.504576,-25.1451 1.47127,-32.3365 1.00915,-7.1902 3.91167,-14.1281 8.83129,-20.7725 4.87716,-6.64317 11.6477,-11.9 20.3104,-15.7267 8.66148,-3.78432 18.6281,-5.71893 29.8549,-5.71893 15.3047,0 27.9203,2.98621 37.8444,8.87253 9.92292,5.92998 16.4412,13.2876 19.5948,22.1188 3.11115,8.83007 4.66732,22.581 4.66732,41.209l0 18.964zm8.24181 112.484m131.448 -112.484l-51.8476 0 0 -34.7332c0,-10.0915 -0.588267,-16.3987 -1.68232,-18.9228 -1.09284,-2.48043 -3.53203,-3.74186 -7.31635,-3.74186 -4.28889,0 -6.98037,1.51373 -8.15811,4.54118 -1.1353,3.06991 -1.72356,9.62939 -1.72356,19.7221l0 92.6357c0,9.71308 0.588267,16.0215 1.72356,18.964 1.17775,2.98621 3.74308,4.45749 7.77968,4.45749 3.86922,0 6.3921,-1.47127 7.56863,-4.45749 1.17775,-2.94255 1.80847,-9.88168 1.80847,-20.815l0 -24.9765 51.8476 0 0 7.73602c0,20.6051 -1.47127,35.239 -4.37258,43.8593 -2.90131,8.62024 -9.3771,16.1889 -19.3437,22.6647 -9.96537,6.47579 -22.2862,9.75553 -36.8777,9.75553 -15.2222,0 -27.7529,-2.77517 -37.5921,-8.28426 -9.84044,-5.50788 -16.3999,-13.119 -19.596,-22.8333 -3.19605,-9.75553 -4.79347,-24.3882 -4.79347,-43.9417l0 -58.2397c0,-14.3804 0.504576,-25.1451 1.47127,-32.3365 1.00915,-7.1902 3.91167,-14.1281 8.83129,-20.7725 4.87716,-6.64317 11.6477,-11.9 20.3104,-15.7267 8.66148,-3.78432 18.6281,-5.71893 29.8549,-5.71893 15.3059,0 27.9215,2.98621 37.8456,8.87253 9.92292,5.92998 16.4412,13.2876 19.5948,22.1188 3.11115,8.83007 4.66732,22.581 4.66732,41.209l0 18.964zm8.24181 112.484m10.3438 -199.443l86.4971 0 0 39.9051 -34.6071 0 0 37.8031 32.379 0 0 37.9717 -32.379 0 0 43.8581 38.0554 0 0 39.9051 -89.9455 0 0 -199.443zm94.4866 199.443m120.221 -139.102l-48.1469 0 0 -14.7588c0,-6.89668 -0.631932,-11.3117 -1.85092,-13.2039 -1.21899,-1.89216 -3.27974,-2.81762 -6.18105,-2.81762 -3.11236,0 -5.46664,1.26144 -7.06406,3.82677 -1.59863,2.52288 -2.39795,6.39089 -2.39795,11.564 0,6.64317 0.88422,11.6889 2.69147,15.0536 1.72478,3.36343 6.64439,7.40004 14.6764,12.1947 23.0843,13.7072 37.5921,24.9353 43.6058,33.7241 6.01245,8.78762 8.99867,22.9594 8.99867,42.5117 0,14.213 -1.68232,24.6842 -5.00452,31.4123 -3.32219,6.72687 -9.75553,12.4046 -19.2588,16.9457 -9.5457,4.54118 -20.6051,6.85422 -33.262,6.85422 -13.8758,0 -25.7346,-2.64902 -35.5313,-7.90583 -9.84044,-5.25559 -16.2738,-11.9424 -19.3012,-20.0581 -3.02745,-8.1569 -4.54118,-19.6784 -4.54118,-34.6483l0 -13.0353 48.1469 0 0 24.2621c0,7.48494 0.673172,12.2784 2.0183,14.4229 1.38758,2.10321 3.78432,3.19605 7.23265,3.19605 3.44834,0 6.01245,-1.34513 7.69478,-4.07906 1.68232,-2.69026 2.52288,-6.72808 2.52288,-12.0674 0,-11.7326 -1.59742,-19.4274 -4.79347,-23.0443 -3.27974,-3.61572 -11.3954,-9.62939 -24.2633,-18.081 -12.9091,-8.57779 -21.4445,-14.76 -25.6497,-18.6281 -4.16275,-3.86922 -7.65354,-9.20972 -10.3863,-16.0215 -2.77517,-6.81177 -4.12151,-15.5157 -4.12151,-26.113 0,-15.2634 1.93461,-26.449 5.84507,-33.5143 3.86922,-7.06406 10.1764,-12.5719 18.8803,-16.5673 8.70514,-3.95291 19.2175,-5.97122 31.5372,-5.97122 13.4986,0 24.9777,2.1869 34.4397,6.51824 9.50324,4.37258 15.768,9.83922 18.8803,16.4836 3.06991,6.60194 4.58363,17.8287 4.58363,33.6816l0 7.86337zm10.2601 139.102m120.221 -139.102l-48.1469 0 0 -14.7588c0,-6.89668 -0.631932,-11.3117 -1.85092,-13.2039 -1.21899,-1.89216 -3.27974,-2.81762 -6.18105,-2.81762 -3.11236,0 -5.46664,1.26144 -7.06406,3.82677 -1.59863,2.52288 -2.39795,6.39089 -2.39795,11.564 0,6.64317 0.88422,11.6889 2.69147,15.0536 1.72478,3.36343 6.64439,7.40004 14.6764,12.1947 23.0843,13.7072 37.5921,24.9353 43.6058,33.7241 6.01245,8.78762 8.99867,22.9594 8.99867,42.5117 0,14.213 -1.68232,24.6842 -5.00452,31.4123 -3.32219,6.72687 -9.75553,12.4046 -19.2588,16.9457 -9.5457,4.54118 -20.6051,6.85422 -33.262,6.85422 -13.8758,0 -25.7346,-2.64902 -35.5313,-7.90583 -9.84044,-5.25559 -16.2738,-11.9424 -19.3012,-20.0581 -3.02745,-8.1569 -4.54118,-19.6784 -4.54118,-34.6483l0 -13.0353 48.1469 0 0 24.2621c0,7.48494 0.673172,12.2784 2.0183,14.4229 1.38758,2.10321 3.78432,3.19605 7.23265,3.19605 3.44834,0 6.01245,-1.34513 7.69478,-4.07906 1.68232,-2.69026 2.52288,-6.72808 2.52288,-12.0674 0,-11.7326 -1.59742,-19.4274 -4.79347,-23.0443 -3.27974,-3.61572 -11.3954,-9.62939 -24.2633,-18.081 -12.9091,-8.57779 -21.4445,-14.76 -25.6497,-18.6281 -4.16275,-3.86922 -7.65354,-9.20972 -10.3863,-16.0215 -2.77517,-6.81177 -4.12151,-15.5157 -4.12151,-26.113 0,-15.2634 1.93461,-26.449 5.84507,-33.5143 3.86922,-7.06406 10.1764,-12.5719 18.8803,-16.5673 8.70514,-3.95291 19.2175,-5.97122 31.5372,-5.97122 13.4986,0 24.9777,2.1869 34.4397,6.51824 9.50324,4.37258 15.768,9.83922 18.8803,16.4836 3.06991,6.60194 4.58363,17.8287 4.58363,33.6816l0 7.86337z"/>
   <g style="clip-path:url(#id0)">
    <g>
     <polygon id="_2368803041" class="fil1" points="-15.1409,187.065 1590.45,-1.78421 1595.02,38.2422 -10.5706,227.092 "/>
    </g>
   </g>
   <g style="clip-path:url(#id1)">
    <g>
     <polygon id="_236880304" class="fil1" points="-15.1409,187.065 1590.45,-1.78421 1595.02,38.2422 -10.5706,227.092 "/>
    </g>
   </g>
   <g style="clip-path:url(#id2)">
    <g>
     <polygon id="_236880304" class="fil1" points="-15.1409,187.065 1590.45,-1.78421 1595.02,38.2422 -10.5706,227.092 "/>
    </g>
   </g>
   <g style="clip-path:url(#id3)">
    <g>
     <polygon id="_236880304" class="fil1" points="-15.1409,187.065 1590.45,-1.78421 1595.02,38.2422 -10.5706,227.092 "/>
    </g>
   </g>
   <g style="clip-path:url(#id4)">
    <g>
     <polygon id="_236880304" class="fil1" points="-15.1409,187.065 1590.45,-1.78421 1595.02,38.2422 -10.5706,227.092 "/>
    </g>
   </g>
   <g style="clip-path:url(#id5)">
    <g>
     <polygon id="_236880304" class="fil1" points="-15.1409,187.065 1590.45,-1.78421 1595.02,38.2422 -10.5706,227.092 "/>
    </g>
   </g>
   <path id="_236438136" class="fil2" d="M114.166 64.5469l-48.1482 0 0 -14.76c0,-6.89668 -0.630719,-11.3117 -1.84971,-13.2039 -1.2202,-1.89216 -3.27974,-2.81762 -6.18226,-2.81762 -3.11115,0 -5.46543,1.26265 -7.06406,3.82677 -1.59742,2.52288 -2.39673,6.3921 -2.39673,11.564 0,6.64439 0.883007,11.6901 2.69147,15.0548 1.72356,3.36343 6.64439,7.40004 14.6751,12.1935 23.0855,13.7084 37.5921,24.9365 43.6058,33.7253 6.01367,8.78762 8.99867,22.9582 8.99867,42.5117 0,14.213 -1.68232,24.6842 -5.0033,31.411 -3.32219,6.72808 -9.75553,12.4058 -19.2588,16.9469 -9.5457,4.54118 -20.6051,6.85422 -33.262,6.85422 -13.8758,0 -25.7346,-2.65023 -35.5326,-7.90583 -9.83922,-5.25559 -16.2726,-11.9424 -19.3012,-20.0581 -3.02745,-8.1569 -4.54118,-19.6784 -4.54118,-34.6483l0 -13.0365 48.1469 0 0 24.2633c0,7.48494 0.673172,12.2784 2.0183,14.4229 1.38758,2.10321 3.78432,3.19605 7.23265,3.19605 3.44834,0 6.01367,-1.34513 7.69599,-4.07784 1.68111,-2.69269 2.52288,-6.72929 2.52288,-12.0698 0,-11.7314 -1.59742,-19.4274 -4.79347,-23.0431 -3.28095,-3.61572 -11.3954,-9.62939 -24.2633,-18.081 -12.9091,-8.579 -21.4457,-14.76 -25.6509,-18.6293 -4.16275,-3.86801 -7.65354,-9.2085 -10.3863,-16.0203 -2.77517,-6.81177 -4.1203,-15.5169 -4.1203,-26.1142 0,-15.2634 1.93461,-26.449 5.84386,-33.513 3.86922,-7.06406 10.1764,-12.5732 18.8816,-16.5685 8.70393,-3.9517 19.2175,-5.97 31.5372,-5.97 13.4974,0 24.9777,2.18569 34.4385,6.51824 9.50446,4.37258 15.7692,9.83922 18.8816,16.4824 3.06869,6.60194 4.58363,17.83 4.58363,33.6828l0 7.86337zm20.6027 -60.3417l52.2272 0c14.1281,0 25.0189,1.09284 32.5876,3.32219 7.61109,2.22814 13.33,5.42297 17.1155,9.58694 3.82556,4.20399 6.43334,9.29341 7.77968,15.2222 1.34513,5.97 2.01709,15.1797 2.01709,27.6692l0 17.3666c0,12.7405 -1.30268,22.0339 -3.91046,27.8366 -2.64902,5.84507 -7.48373,10.3026 -14.5065,13.4562 -7.02282,3.11115 -16.1901,4.66732 -27.5018,4.66732l-13.9183 0 0 80.3161 -51.89 0 0 -199.443zm51.89 34.1013l0 50.7547c1.47249,0.0849045 2.73393,0.126144 3.78432,0.126144 4.79347,0 8.07442,-1.17653 9.92534,-3.48958 1.84849,-2.35428 2.77517,-7.23265 2.77517,-14.5915l0 -16.3999c0,-6.81177 -1.0516,-11.268 -3.19605,-13.2876 -2.14566,-2.06075 -6.55948,-3.11236 -13.2888,-3.11236zm158.066 -34.1013l29.6875 199.443 -53.109 0 -2.56533 -35.8685 -18.6281 0 -3.06991 35.8685 -53.6985 0 26.3653 -199.443 75.018 0zm-27.4581 128.253c-2.65023,-22.581 -5.2568,-50.5024 -7.90583,-83.6807 -5.2568,38.1403 -8.53655,66.0181 -9.83922,83.6807l17.7451 0zm156.552 -128.253l0 39.9051 -30.7803 0 0 159.538 -51.8476 0 0 -159.538 -30.6966 0 0 -39.9051 113.325 0zm63.7475 0l0 199.443 -51.89 0 0 -199.443 51.89 0zm110.381 0l29.6887 199.443 -53.1102 0 -2.56412 -35.8685 -18.6293 0 -3.06991 35.8685 -53.6973 0 26.3653 -199.443 75.0168 0zm-27.4581 128.253c-2.64902,-22.581 -5.2568,-50.5024 -7.90461,-83.6807 -5.2568,38.1403 -8.53776,66.0181 -9.84044,83.6807l17.7451 0zm117.908 -128.253l0 159.538 31.5372 0 0 39.9051 -83.4272 0 0 -199.443 51.89 0z"/>
   <g style="clip-path:url(#id6)">
    <g>
     <polygon id="_2368803041" class="fil1" points="-15.1409,187.065 1590.45,-1.78421 1595.02,38.2422 -10.5706,227.092 "/>
    </g>
   </g>
   <path class="fil3" d="M114.166 64.5469l-48.1482 0 0 -14.76c0,-6.89668 -0.630719,-11.3117 -1.84971,-13.2039 -1.2202,-1.89216 -3.27974,-2.81762 -6.18226,-2.81762 -3.11115,0 -5.46543,1.26265 -7.06406,3.82677 -1.59742,2.52288 -2.39673,6.3921 -2.39673,11.564 0,6.64439 0.883007,11.6901 2.69147,15.0548 1.72356,3.36343 6.64439,7.40004 14.6751,12.1935 23.0855,13.7084 37.5921,24.9365 43.6058,33.7253 6.01367,8.78762 8.99867,22.9582 8.99867,42.5117 0,14.213 -1.68232,24.6842 -5.0033,31.411 -3.32219,6.72808 -9.75553,12.4058 -19.2588,16.9469 -9.5457,4.54118 -20.6051,6.85422 -33.262,6.85422 -13.8758,0 -25.7346,-2.65023 -35.5326,-7.90583 -9.83922,-5.25559 -16.2726,-11.9424 -19.3012,-20.0581 -3.02745,-8.1569 -4.54118,-19.6784 -4.54118,-34.6483l0 -13.0365 48.1469 0 0 24.2633c0,7.48494 0.673172,12.2784 2.0183,14.4229 1.38758,2.10321 3.78432,3.19605 7.23265,3.19605 3.44834,0 6.01367,-1.34513 7.69599,-4.07784 1.68111,-2.69269 2.52288,-6.72929 2.52288,-12.0698 0,-11.7314 -1.59742,-19.4274 -4.79347,-23.0431 -3.28095,-3.61572 -11.3954,-9.62939 -24.2633,-18.081 -12.9091,-8.579 -21.4457,-14.76 -25.6509,-18.6293 -4.16275,-3.86801 -7.65354,-9.2085 -10.3863,-16.0203 -2.77517,-6.81177 -4.1203,-15.5169 -4.1203,-26.1142 0,-15.2634 1.93461,-26.449 5.84386,-33.513 3.86922,-7.06406 10.1764,-12.5732 18.8816,-16.5685 8.70393,-3.9517 19.2175,-5.97 31.5372,-5.97 13.4974,0 24.9777,2.18569 34.4385,6.51824 9.50446,4.37258 15.7692,9.83922 18.8816,16.4824 3.06869,6.60194 4.58363,17.83 4.58363,33.6828l0 7.86337zm20.6027 -60.3417l52.2272 0c14.1281,0 25.0189,1.09284 32.5876,3.32219 7.61109,2.22814 13.33,5.42297 17.1155,9.58694 3.82556,4.20399 6.43334,9.29341 7.77968,15.2222 1.34513,5.97 2.01709,15.1797 2.01709,27.6692l0 17.3666c0,12.7405 -1.30268,22.0339 -3.91046,27.8366 -2.64902,5.84507 -7.48373,10.3026 -14.5065,13.4562 -7.02282,3.11115 -16.1901,4.66732 -27.5018,4.66732l-13.9183 0 0 80.3161 -51.89 0 0 -199.443zm51.89 34.1013l0 50.7547c1.47249,0.0849045 2.73393,0.126144 3.78432,0.126144 4.79347,0 8.07442,-1.17653 9.92534,-3.48958 1.84849,-2.35428 2.77517,-7.23265 2.77517,-14.5915l0 -16.3999c0,-6.81177 -1.0516,-11.268 -3.19605,-13.2876 -2.14566,-2.06075 -6.55948,-3.11236 -13.2888,-3.11236zm158.066 -34.1013l29.6875 199.443 -53.109 0 -2.56533 -35.8685 -18.6281 0 -3.06991 35.8685 -53.6985 0 26.3653 -199.443 75.018 0zm-27.4581 128.253c-2.65023,-22.581 -5.2568,-50.5024 -7.90583,-83.6807 -5.2568,38.1403 -8.53655,66.0181 -9.83922,83.6807l17.7451 0zm156.552 -128.253l0 39.9051 -30.7803 0 0 159.538 -51.8476 0 0 -159.538 -30.6966 0 0 -39.9051 113.325 0zm63.7475 0l0 199.443 -51.89 0 0 -199.443 51.89 0zm110.381 0l29.6887 199.443 -53.1102 0 -2.56412 -35.8685 -18.6293 0 -3.06991 35.8685 -53.6973 0 26.3653 -199.443 75.0168 0zm-27.4581 128.253c-2.64902,-22.581 -5.2568,-50.5024 -7.90461,-83.6807 -5.2568,38.1403 -8.53776,66.0181 -9.84044,83.6807l17.7451 0zm117.908 -128.253l0 159.538 31.5372 0 0 39.9051 -83.4272 0 0 -199.443 51.89 0z"/>
  </g>
 </g>
</svg>
