<?xml version="1.0" encoding="UTF-8"?>
<!DOCTYPE svg PUBLIC "-//W3C//DTD SVG 1.1//EN" "http://www.w3.org/Graphics/SVG/1.1/DTD/svg11.dtd">
<!-- Creator: CorelDRAW -->
<svg xmlns="http://www.w3.org/2000/svg" xml:space="preserve" width="1542px" height="202px" style="shape-rendering:geometricPrecision; text-rendering:geometricPrecision; image-rendering:optimizeQuality; fill-rule:evenodd; clip-rule:evenodd"
viewBox="0 0 1575.81 205.993"
 xmlns:xlink="http://www.w3.org/1999/xlink">
 <defs>
  <style type="text/css">
   <![CDATA[
    .fil2 {fill:#FEFEFE;fill-rule:nonzero}
    .fil0 {fill:black;fill-rule:nonzero}
    .fil1 {fill:#DC3333;fill-rule:nonzero}
   ]]>
  </style>
 </defs>
 <g id="Layer_x0020_1">
  <metadata id="CorelCorpID_0Corel-Layer"/>
  <g id="_236424888">
   <path id="_237632224" class="fil0" d="M119.144 63.9701l-47.7151 0 0 -14.6272c0,-6.83454 -0.625052,-11.2099 -1.83413,-13.0863 -1.20787,-1.87515 -3.25075,-2.79101 -6.12623,-2.79101 -3.08303,0 -5.41671,1.2501 -7.00106,3.79134 -1.58314,2.50021 -2.37471,6.33498 -2.37471,11.4609 0,6.58356 0.874831,11.5852 2.66673,14.9192 1.70864,3.33401 6.58476,7.3341 14.5439,12.0847 22.8783,13.5858 37.2557,24.7125 43.2154,33.4222 5.95971,8.7097 8.91845,22.7541 8.91845,42.1319 0,14.0854 -1.66761,24.4615 -4.95939,31.1295 -3.29178,6.66802 -9.66899,12.2935 -19.087,16.7943 -9.45903,4.50085 -20.4192,6.79352 -32.9636,6.79352 -13.7511,0 -25.504,-2.6257 -35.2141,-7.83487 -9.75105,-5.20917 -16.1271,-11.835 -19.128,-19.8786 -2.99977,-8.08464 -4.49965,-19.5033 -4.49965,-34.3392l0 -12.9185 47.7151 0 0 24.0464c0,7.41736 0.667285,12.168 2.00065,14.2929 1.3756,2.08391 3.75031,3.16749 7.16758,3.16749 3.41727,0 5.95971,-1.33336 7.62611,-4.04232 1.66761,-2.66673 2.50021,-6.66802 2.50021,-11.9604 0,-11.6262 -1.58314,-19.2523 -4.75063,-22.8361 -3.24954,-3.58379 -11.2932,-9.5435 -24.0452,-17.9202 -12.793,-8.50094 -21.253,-14.6272 -25.4208,-18.4607 -4.12558,-3.83478 -7.58388,-9.1272 -10.2928,-15.8785 -2.75119,-6.75008 -4.08456,-15.3765 -4.08456,-25.8781 0,-15.1279 1.91739,-26.2136 5.79319,-33.2146 3.83357,-7.00106 10.0841,-12.46 18.7105,-16.4191 8.62644,-3.91683 19.0448,-5.91748 31.255,-5.91748 13.3771,0 24.7547,2.16717 34.1305,6.45927 9.41801,4.33433 15.6275,9.75225 18.7117,16.3358 3.042,6.54253 4.54188,17.6704 4.54188,33.3811l0 7.79263z"/>
   <path id="_2376322241" class="fil0" d="M139.564 4.16902l51.7586 0c14.0021,0 24.7945,1.08358 32.2963,3.29178 7.54285,2.2094 13.2106,5.37569 16.9609,9.50127 3.79254,4.16782 6.37601,9.21046 7.70937,15.0857 1.33336,5.91748 2.00065,15.0447 2.00065,27.4214l0 17.2106c0,12.6277 -1.29234,21.837 -3.8758,27.5879 -2.6257,5.79319 -7.41736,10.2108 -14.3774,13.336 -6.95883,3.08303 -16.0438,4.62514 -27.2537,4.62514l-13.7946 0 0 79.5963 -51.4244 0 0 -197.656zm51.4244 33.7962l0 50.2998c1.45886,0.0832598 2.70896,0.125493 3.75152,0.125493 4.75063,0 8.00018,-1.16684 9.83431,-3.4583 1.83413,-2.33369 2.74999,-7.16879 2.74999,-14.4607l0 -16.2538c0,-6.75008 -1.04135,-11.1677 -3.16628,-13.1683 -2.12614,-2.04167 -6.5015,-3.08423 -13.1695,-3.08423z"/>
   <path id="_23763222412" class="fil0" d="M347.639 4.16902l29.4209 197.656 -52.6335 0 -2.54244 -35.5471 -18.4607 0 -3.042 35.5471 -53.2175 0 26.1291 -197.656 74.3462 0zm-27.2127 127.104c-2.6257,-22.3788 -5.20917,-50.05 -7.83487,-82.9304 -5.20917,37.7975 -8.45992,65.4265 -9.75225,82.9304l17.5871 0z"/>
   <polygon id="_237632224123" class="fil0" points="475.575,4.16902 475.575,43.7162 445.071,43.7162 445.071,201.825 393.687,201.825 393.687,43.7162 363.266,43.7162 363.266,4.16902 "/>
   <polygon id="_2376322241234" class="fil0" points="538.753,4.16902 538.753,201.825 487.329,201.825 487.329,4.16902 "/>
   <path id="_23763222412345" class="fil0" d="M648.147 4.16902l29.4209 197.656 -52.6335 0 -2.54244 -35.5471 -18.4607 0 -3.042 35.5471 -53.2175 0 26.1291 -197.656 74.3462 0zm-27.2127 127.104c-2.6257,-22.3788 -5.20917,-50.05 -7.83487,-82.9304 -5.20917,37.7975 -8.45992,65.4265 -9.75225,82.9304l17.5871 0z"/>
   <polygon id="_237632224123456" class="fil0" points="737.785,4.16902 737.785,162.277 769.04,162.277 769.04,201.825 686.361,201.825 686.361,4.16902 "/>
   <path id="_2376322241234567" class="fil0" d="M914.314 4.16902l29.4209 197.656 -52.6335 0 -2.54244 -35.5471 -18.4607 0 -3.042 35.5471 -53.2175 0 26.1291 -197.656 74.3462 0zm-27.2127 127.104c-2.6257,-22.3788 -5.20917,-50.05 -7.83487,-82.9304 -5.20917,37.7975 -8.45992,65.4265 -9.75225,82.9304l17.5871 0z"/>
   <path id="_23763222412345678" class="fil0" d="M1072.55 90.3489l-51.3833 0 0 -34.4225c0,-10.0008 -0.584025,-16.2525 -1.66761,-18.7528 -1.08358,-2.45797 -3.50053,-3.70808 -7.25084,-3.70808 -4.25108,0 -6.9178,1.49988 -8.08464,4.49965 -1.12582,3.04321 -1.70864,9.5435 -1.70864,19.5455l0 91.8066c0,9.62555 0.582818,15.8773 1.70864,18.7938 1.16684,2.95874 3.70928,4.41759 7.70937,4.41759 3.83357,0 6.33498,-1.45886 7.50183,-4.41759 1.16684,-2.91651 1.7919,-9.79328 1.7919,-20.6279l0 -24.7535 51.3833 0 0 7.66714c0,20.4204 -1.45886,34.922 -4.33433,43.4652 -2.87548,8.54318 -9.29372,16.045 -19.1703,22.462 -9.87654,6.41824 -22.0868,9.66899 -36.5474,9.66899 -15.0857,0 -27.5047,-2.75119 -37.2557,-8.21014 -9.75105,-5.45895 -16.2525,-13.0018 -19.42,-22.6286 -3.16749,-9.66779 -4.75063,-24.1707 -4.75063,-43.5485l0 -57.7183c0,-14.2519 0.500765,-24.92 1.45886,-32.0466 1.00032,-7.12535 3.8758,-14.0021 8.75072,-20.5857 4.8351,-6.58476 11.5441,-11.7939 20.1284,-15.5865 8.58541,-3.75031 18.462,-5.6677 29.5886,-5.6677 15.169,0 27.6712,2.95874 37.5055,8.79296 9.83551,5.87645 16.2948,13.1695 19.42,21.9202 3.08423,8.75193 4.62635,22.3788 4.62635,40.8395l0 18.795z"/>
   <path id="_237632224123456789" class="fil0" d="M1210.99 90.3489l-51.3833 0 0 -34.4225c0,-10.0008 -0.584025,-16.2525 -1.66761,-18.7528 -1.08358,-2.45797 -3.50053,-3.70808 -7.25084,-3.70808 -4.25108,0 -6.9178,1.49988 -8.08464,4.49965 -1.12582,3.04321 -1.70864,9.5435 -1.70864,19.5455l0 91.8066c0,9.62555 0.582818,15.8773 1.70864,18.7938 1.16684,2.95874 3.70928,4.41759 7.70937,4.41759 3.83357,0 6.33498,-1.45886 7.50183,-4.41759 1.16684,-2.91651 1.7919,-9.79328 1.7919,-20.6279l0 -24.7535 51.3833 0 0 7.66714c0,20.4204 -1.45886,34.922 -4.33433,43.4652 -2.87548,8.54318 -9.29372,16.045 -19.1703,22.462 -9.87654,6.41824 -22.0868,9.66899 -36.5474,9.66899 -15.0857,0 -27.5047,-2.75119 -37.2557,-8.21014 -9.75105,-5.45895 -16.2525,-13.0018 -19.42,-22.6286 -3.16749,-9.66779 -4.75063,-24.1707 -4.75063,-43.5485l0 -57.7183c0,-14.2519 0.500765,-24.92 1.45886,-32.0466 1.00032,-7.12535 3.8758,-14.0021 8.75072,-20.5857 4.8351,-6.58476 11.5441,-11.7939 20.1284,-15.5865 8.58541,-3.75031 18.462,-5.6677 29.5886,-5.6677 15.169,0 27.6712,2.95874 37.5055,8.79296 9.83551,5.87645 16.2948,13.1695 19.42,21.9202 3.08423,8.75193 4.62635,22.3788 4.62635,40.8395l0 18.795z"/>
   <polygon id="_23763222412345678910" class="fil0" points="1229.41,4.16902 1315.13,4.16902 1315.13,43.7162 1280.83,43.7162 1280.83,81.1807 1312.92,81.1807 1312.92,118.812 1280.83,118.812 1280.83,162.277 1318.55,162.277 1318.55,201.825 1229.41,201.825 "/>
   <path id="_2376322241234567891011" class="fil0" d="M1442.19 63.9701l-47.7151 0 0 -14.6272c0,-6.83454 -0.625052,-11.2099 -1.83413,-13.0863 -1.20787,-1.87515 -3.25075,-2.79101 -6.12623,-2.79101 -3.08303,0 -5.41671,1.2501 -7.00106,3.79134 -1.58314,2.50021 -2.37471,6.33498 -2.37471,11.4609 0,6.58356 0.874831,11.5852 2.66673,14.9192 1.70864,3.33401 6.58476,7.3341 14.5439,12.0847 22.8783,13.5858 37.2557,24.7125 43.2154,33.4222 5.95971,8.7097 8.91845,22.7541 8.91845,42.1319 0,14.0854 -1.66761,24.4615 -4.95939,31.1295 -3.29178,6.66802 -9.66899,12.2935 -19.087,16.7943 -9.45903,4.50085 -20.4192,6.79352 -32.9636,6.79352 -13.7511,0 -25.504,-2.6257 -35.2141,-7.83487 -9.75105,-5.20917 -16.1271,-11.835 -19.128,-19.8786 -2.99977,-8.08464 -4.49965,-19.5033 -4.49965,-34.3392l0 -12.9185 47.7151 0 0 24.0464c0,7.41736 0.667285,12.168 2.00065,14.2929 1.3756,2.08391 3.75031,3.16749 7.16758,3.16749 3.41727,0 5.95971,-1.33336 7.62611,-4.04232 1.66761,-2.66673 2.50021,-6.66802 2.50021,-11.9604 0,-11.6262 -1.58314,-19.2523 -4.75063,-22.8361 -3.24954,-3.58379 -11.2932,-9.5435 -24.0452,-17.9202 -12.793,-8.50094 -21.253,-14.6272 -25.4208,-18.4607 -4.12558,-3.83478 -7.58388,-9.1272 -10.2928,-15.8785 -2.75119,-6.75008 -4.08456,-15.3765 -4.08456,-25.8781 0,-15.1279 1.91739,-26.2136 5.79319,-33.2146 3.83357,-7.00106 10.0841,-12.46 18.7105,-16.4191 8.62644,-3.91683 19.0448,-5.91748 31.255,-5.91748 13.3771,0 24.7547,2.16717 34.1305,6.45927 9.41801,4.33433 15.6275,9.75225 18.7117,16.3358 3.042,6.54253 4.54188,17.6704 4.54188,33.3811l0 7.79263z"/>
   <path id="_237632224123456789101112" class="fil0" d="M1571.5 63.9701l-47.7151 0 0 -14.6272c0,-6.83454 -0.625052,-11.2099 -1.83413,-13.0863 -1.20787,-1.87515 -3.25075,-2.79101 -6.12623,-2.79101 -3.08303,0 -5.41671,1.2501 -7.00106,3.79134 -1.58314,2.50021 -2.37471,6.33498 -2.37471,11.4609 0,6.58356 0.874831,11.5852 2.66673,14.9192 1.70864,3.33401 6.58476,7.3341 14.5439,12.0847 22.8783,13.5858 37.2557,24.7125 43.2154,33.4222 5.95971,8.7097 8.91845,22.7541 8.91845,42.1319 0,14.0854 -1.66761,24.4615 -4.95939,31.1295 -3.29178,6.66802 -9.66899,12.2935 -19.087,16.7943 -9.45903,4.50085 -20.4192,6.79352 -32.9636,6.79352 -13.7511,0 -25.504,-2.6257 -35.2141,-7.83487 -9.75105,-5.20917 -16.1271,-11.835 -19.128,-19.8786 -2.99977,-8.08464 -4.49965,-19.5033 -4.49965,-34.3392l0 -12.9185 47.7151 0 0 24.0464c0,7.41736 0.667285,12.168 2.00065,14.2929 1.3756,2.08391 3.75031,3.16749 7.16758,3.16749 3.41727,0 5.95971,-1.33336 7.62611,-4.04232 1.66761,-2.66673 2.50021,-6.66802 2.50021,-11.9604 0,-11.6262 -1.58314,-19.2523 -4.75063,-22.8361 -3.24954,-3.58379 -11.2932,-9.5435 -24.0452,-17.9202 -12.793,-8.50094 -21.253,-14.6272 -25.4208,-18.4607 -4.12558,-3.83478 -7.58388,-9.1272 -10.2928,-15.8785 -2.75119,-6.75008 -4.08456,-15.3765 -4.08456,-25.8781 0,-15.1279 1.91739,-26.2136 5.79319,-33.2146 3.83357,-7.00106 10.0841,-12.46 18.7105,-16.4191 8.62644,-3.91683 19.0448,-5.91748 31.255,-5.91748 13.3771,0 24.7547,2.16717 34.1305,6.45927 9.41801,4.33433 15.6275,9.75225 18.7117,16.3358 3.042,6.54253 4.54188,17.6704 4.54188,33.3811l0 7.79263z"/>
   <path id="_233429632" class="fil1" d="M119.146 63.9701l-47.7175 0 0 -14.6284c0,-6.83454 -0.625052,-11.2099 -1.83413,-13.0851 -1.20787,-1.87636 -3.24954,-2.79222 -6.12502,-2.79222 -3.08423,0 -5.41792,1.2501 -7.00106,3.79254 -1.58314,2.50021 -2.37592,6.33378 -2.37592,11.4597 0,6.58476 0.874831,11.5852 2.66673,14.9204 1.70864,3.3328 6.58476,7.33289 14.5451,12.0835 22.8783,13.587 37.2557,24.7137 43.2154,33.4234 5.9585,8.7097 8.91845,22.7528 8.91845,42.1319 0,7.19895 -0.436812,13.4278 -1.30199,18.69l-107.999 12.7025c-0.802431,-1.4118 -1.48782,-2.87548 -2.05133,-4.38863 -3.00097,-8.08464 -4.50085,-19.5021 -4.50085,-34.338l0 -12.9197 47.7151 0 0 24.0452c0,7.41857 0.667285,12.1692 2.00065,14.2953 1.3756,2.08391 3.75031,3.16628 7.16879,3.16628 3.41727,0 5.9585,-1.33336 7.62611,-4.04112 1.6664,-2.66793 2.50021,-6.66923 2.50021,-11.9604 0,-11.6274 -1.58314,-19.2535 -4.75063,-22.8385 -3.25075,-3.58258 -11.2944,-9.54229 -24.0464,-17.919 -12.793,-8.50094 -21.253,-14.6272 -25.4208,-18.462 -4.12558,-3.83357 -7.58509,-9.126 -10.2928,-15.8773 -2.75119,-6.75128 -4.08456,-15.3777 -4.08456,-25.8793 0,-15.1267 1.91739,-26.2123 5.79198,-33.2134 3.83478,-7.00106 10.0853,-12.4612 18.7129,-16.4203 8.62523,-3.91683 19.0448,-5.91748 31.255,-5.91748 13.3771,0 24.7547,2.16717 34.1305,6.46048 9.41921,4.33313 15.6275,9.75105 18.7117,16.3358 3.042,6.54253 4.54309,17.6692 4.54309,33.3799l0 7.79384zm20.4192 -59.8022l51.7586 0c14.0021,0 24.7957,1.08358 32.2963,3.29298 7.54406,2.20699 13.2106,5.37448 16.9621,9.50127 3.79134,4.16661 6.37601,9.20926 7.70937,15.0857 1.33336,5.91748 2.00065,15.0435 2.00065,27.4214l0 17.2106c0,12.6277 -1.29234,21.837 -3.8758,27.5879 -2.6257,5.79319 -7.41736,10.2108 -14.3774,13.336 -6.96003,3.08303 -16.0438,4.62514 -27.2549,4.62514l-13.7934 0 0 39.6389 -51.4256 6.049 0 -163.749zm51.4256 33.7974l0 50.2998c1.45886,0.0832598 2.70896,0.124286 3.75031,0.124286 4.75063,0 8.00139,-1.16684 9.83551,-3.4583 1.83292,-2.33369 2.74999,-7.16758 2.74999,-14.4607l0 -16.2525c0,-6.75128 -1.04135,-11.1677 -3.16749,-13.1683 -2.12493,-2.04288 -6.5003,-3.08423 -13.1683,-3.08423zm156.65 -33.7974l20.3745 136.879 -114.598 13.4784 19.8774 -150.358 74.3462 0zm26.2558 176.388l3.16628 21.2699 -52.6347 0 -1.09565 -15.3222 50.564 -5.94764zm-72.4227 8.51904l-1.09082 12.7508 -53.2175 0 0.854318 -6.4641 53.454 -6.28672zm18.9543 -57.8016c-2.6257,-22.3788 -5.20917,-50.05 -7.83487,-82.9316 -5.20917,37.7987 -8.45992,65.4277 -9.75105,82.9316l17.5859 0zm155.152 -127.105l0 39.5484 -30.5057 0 0 88.2662 -51.3833 6.04418 0 -94.3104 -30.4212 0 0 -39.5484 112.31 0zm-30.5057 168.016l0 29.6417 -51.3833 0 0 -23.5975 51.3833 -6.04418zm93.6817 -168.016l0 116.797 -51.4244 6.0478 0 -122.844 51.4244 0zm0 156.997l0 40.6609 -51.4244 0 0 -34.6119 51.4244 -6.049zm109.394 -156.997l15.2052 102.142 -44.5814 5.24295c-1.88963,-18.3172 -3.76962,-39.3976 -5.67011,-63.2111 -3.6755,26.6673 -6.37601,48.2726 -8.10154,64.8304l-46.3274 5.44929 15.1291 -114.453 74.3462 0zm21.0852 141.65l8.33684 56.0073 -52.6335 0 -2.54244 -35.5471 -18.462 0 -3.042 35.5471 -53.2175 0 5.60133 -42.3684 115.959 -13.6389zm68.5554 -141.65l0 93.3861 -51.4256 6.049 0 -99.4351 51.4256 0zm0 133.587l0 24.523 31.255 0 0 39.5472 -82.6806 0 0 -58.0224 51.4256 -6.0478z"/>
   <path id="_236425488" class="fil2" d="M914.319 4.16782l10.6235 71.3729 -42.9572 5.05351c-0.901378,-10.1251 -1.80396,-20.8765 -2.71258,-32.2529 -1.66278,12.0654 -3.12526,23.0943 -4.38863,33.0879l-45.8363 5.39017 10.9263 -82.6516 74.3449 0zm16.5059 110.882l12.9161 86.776 -52.6335 0 -2.54244 -35.5471 -18.4607 0 -3.04321 35.5471 -53.2175 0 9.80535 -74.17 46.6351 -5.48429c-0.304079,3.28816 -0.558685,6.32292 -0.763818,9.10186l17.5859 0c-0.411472,-3.51501 -0.822944,-7.16034 -1.23321,-10.9348l44.9518 -5.28881zm90.3453 -50.8271l0 -8.29581c0,-10.002 -0.582818,-16.2525 -1.6664,-18.754 -1.08358,-2.45797 -3.50053,-3.70808 -7.25084,-3.70808 -4.25108,0 -6.9178,1.50109 -8.08464,4.50085 -1.12582,3.042 -1.70864,9.5435 -1.70864,19.5455l0 8.91242 -51.3821 6.04418c0.0325799,-13.5424 0.529725,-23.7387 1.45644,-30.6263 1.00032,-7.12655 3.8758,-14.0021 8.75193,-20.5869 4.83389,-6.58476 11.5441,-11.7939 20.1284,-15.5853 8.58541,-3.75152 18.462,-5.6689 29.5886,-5.6689 15.169,0 27.6712,2.95874 37.5055,8.79416 9.83551,5.87524 16.2948,13.1683 19.42,21.9202 2.28783,6.49064 3.72618,15.6649 4.31624,27.5011l-51.0744 6.00677zm-18.7105 42.4022l0 42.6918c0,9.62797 0.582818,15.8785 1.70864,18.795 1.16684,2.95874 3.70808,4.41759 7.70937,4.41759 3.83357,0 6.33378,-1.45886 7.50062,-4.41759 1.16684,-2.91651 1.7919,-9.79207 1.7919,-20.6279l0 -24.7535 51.3833 0 0 7.66714c0,20.4204 -1.45765,34.9233 -4.33313,43.4652 -2.87548,8.54318 -9.29372,16.045 -19.1703,22.4632 -9.87654,6.41704 -22.0868,9.66779 -36.5474,9.66779 -15.0857,0 -27.5047,-2.74999 -37.2569,-8.21014 -9.75105,-5.45895 -16.2513,-13.0018 -19.4188,-22.6286 -3.16749,-9.66779 -4.75063,-24.1707 -4.75063,-43.5485l0 -18.9374 51.3833 -6.04418zm208.534 -16.2755l-51.3833 0 0 -2.20819 51.3833 -6.04297 0 8.25116zm-51.5378 -42.3913c-0.240126,-5.43602 -0.752958,-9.03188 -1.51195,-10.7852 -1.08358,-2.45797 -3.50174,-3.70808 -7.25205,-3.70808 -4.24987,0 -6.9178,1.50109 -8.08464,4.50085 -0.819324,2.21423 -1.34905,6.26258 -1.57832,12.1595l-51.1855 6.02004c0.243746,-5.76423 0.622638,-10.5306 1.13064,-14.3038 1.00032,-7.12655 3.8758,-14.0021 8.75072,-20.5869 4.83389,-6.58476 11.5441,-11.7939 20.1284,-15.5853 8.58541,-3.75152 18.462,-5.6689 29.5898,-5.6689 15.1678,0 27.6712,2.95874 37.5055,8.79416 9.83431,5.87524 16.2948,13.1683 19.42,21.9202 1.11496,3.16387 2.02719,6.96607 2.73913,11.403l-49.6518 5.84025zm-18.5573 42.3841l0 58.9745c0,9.62797 0.584025,15.8785 1.70864,18.795 1.16684,2.95874 3.70928,4.41759 7.70937,4.41759 3.83478,0 6.33498,-1.45886 7.50183,-4.41759 1.16684,-2.91651 1.7919,-9.79207 1.7919,-20.6279l0 -24.7535 51.3833 0 0 7.66714c0,20.4204 -1.45765,34.9233 -4.33433,43.4652 -2.87427,8.54318 -9.29251,16.045 -19.1691,22.4632 -9.87654,6.41704 -22.0868,9.66779 -36.5486,9.66779 -15.0857,0 -27.5035,-2.74999 -37.2557,-8.21014 -9.75105,-5.45895 -16.2525,-13.0018 -19.42,-22.6286 -3.16628,-9.66779 -4.75063,-24.1707 -4.75063,-43.5485l0 -35.2213 51.3833 -6.04297zm88.5148 -86.1739l85.7238 0 0 25.4787 -85.7238 10.0829 0 -35.5616zm51.4256 69.7138l0 7.29911 32.0888 0 0 37.631 -32.0888 0 0 43.4664 37.7155 0 0 39.5472 -89.1411 0 0 -121.895 51.4256 -6.049zm161.361 -9.91153l-47.7163 0 0 -3.45588 47.7127 -5.61098 0.00361999 1.27303 0 7.79384zm-109.642 -36.3725c0.667285,-1.95359 1.4311,-3.70808 2.29025,-5.25985 3.83478,-7.00106 10.0853,-12.4612 18.7117,-16.4203 8.62644,-3.91683 19.046,-5.91748 31.255,-5.91748 13.3771,0 24.7547,2.16717 34.1305,6.46048 5.8499,2.69086 10.4594,5.80043 13.8537,9.34681l-100.241 11.7903zm46.6303 34.7169c0.194273,0.466979 0.403026,0.907411 0.626258,1.3225 1.70864,3.3328 6.58476,7.33289 14.5439,12.0835 22.8795,13.587 37.2557,24.7137 43.2154,33.4234 5.95971,8.7097 8.91845,22.7528 8.91845,42.1319 0,14.0854 -1.66761,24.4627 -4.95939,31.1295 -3.29178,6.66802 -9.66779,12.2947 -19.0858,16.7943 -9.46024,4.50206 -20.4204,6.79352 -32.9648,6.79352 -13.7511,0 -25.504,-2.6257 -35.2141,-7.83366 -9.75105,-5.21037 -16.1271,-11.8362 -19.128,-19.8798 -3.00097,-8.08464 -4.50085,-19.5021 -4.50085,-34.338l0 -12.9197 47.7163 0 0 24.0452c0,7.41857 0.667285,12.1692 2.00065,14.2953 1.37439,2.08391 3.75031,3.16628 7.16758,3.16628 3.41727,0 5.95971,-1.33336 7.62732,-4.04112 1.6664,-2.66793 2.50021,-6.66923 2.50021,-11.9604 0,-11.6274 -1.58435,-19.2535 -4.75184,-22.8385 -3.25075,-3.58258 -11.2932,-9.54229 -24.0452,-17.919 -12.7943,-8.50094 -21.2542,-14.6272 -25.4208,-18.462 -4.12558,-3.83357 -7.58509,-9.126 -10.294,-15.8773 -1.56022,-3.83236 -2.66552,-8.26926 -3.32918,-13.3095l49.3779 -5.80646zm192.325 1.65554l-47.7163 0 0 -14.6284c0,-1.45282 -0.0289599,-2.79584 -0.0844664,-4.02664l47.1021 -5.53979c0.466979,4.75908 0.698658,10.2253 0.698658,16.401l0 7.79384zm-65.0319 -16.6278c-0.01448,0.446465 -0.0205133,0.906204 -0.0205133,1.37439 0,6.58476 0.874831,11.5852 2.66673,14.9204 1.70864,3.3328 6.58476,7.33289 14.5439,12.0835 22.8795,13.587 37.2557,24.7137 43.2154,33.4234 5.95971,8.7097 8.91845,22.7528 8.91845,42.1319 0,14.0854 -1.66761,24.4627 -4.95939,31.1295 -3.29178,6.66802 -9.66779,12.2947 -19.0858,16.7943 -9.46024,4.50206 -20.4204,6.79352 -32.9648,6.79352 -13.7511,0 -25.504,-2.6257 -35.2141,-7.83366 -9.75105,-5.21037 -16.1271,-11.8362 -19.128,-19.8798 -3.00097,-8.08464 -4.50085,-19.5021 -4.50085,-34.338l0 -12.9197 47.7163 0 0 24.0452c0,7.41857 0.667285,12.1692 2.00065,14.2953 1.37439,2.08391 3.75031,3.16628 7.16758,3.16628 3.41727,0 5.95971,-1.33336 7.62732,-4.04112 1.6664,-2.66793 2.50021,-6.66923 2.50021,-11.9604 0,-11.6274 -1.58435,-19.2535 -4.75184,-22.8385 -3.25075,-3.58258 -11.2932,-9.54229 -24.0452,-17.919 -12.7943,-8.50094 -21.2542,-14.6272 -25.4208,-18.462 -4.12558,-3.83357 -7.58509,-9.126 -10.294,-15.8773 -2.74999,-6.75128 -4.08335,-15.3777 -4.08335,-25.8793 0,-0.863971 0.00603332,-1.71346 0.0193066,-2.55209l48.0928 -5.65684zm-32.2022 -36.4135c2.53761,-1.87636 5.40344,-3.54638 8.59386,-5.01127 8.62644,-3.91683 19.0448,-5.91748 31.255,-5.91748 9.48075,0 17.9564,1.08962 25.4268,3.25075l-65.2757 7.678z"/>
  </g>
 </g>
</svg>
